<?xml version="1.0" encoding="utf-8"?>
<!-- Generator: Adobe Illustrator 26.0.0, SVG Export Plug-In . SVG Version: 6.00 Build 0)  -->
<svg version="1.1" id="Calque_1" xmlns="http://www.w3.org/2000/svg" xmlns:xlink="http://www.w3.org/1999/xlink" x="0px" y="0px"
	 viewBox="0 0 1050.6 1050.6" style="enable-background:new 0 0 1050.6 1050.6;" xml:space="preserve">
<style type="text/css">
	.st0{clip-path:url(#SVGID_00000100376240256649942880000016480734562854844561_);}
</style>
<g>
	<defs>
		<rect id="SVGID_1_" x="-66.6" y="-243.1" width="1117.1" height="1490.2"/>
	</defs>
	<clipPath id="SVGID_00000069390951993691749140000009198404157557973895_">
		<use xlink:href="#SVGID_1_"  style="overflow:visible;"/>
	</clipPath>
	<g style="clip-path:url(#SVGID_00000069390951993691749140000009198404157557973895_);">
		<g>
			<path d="M785,870.1c-3.5-0.5-6.8-0.5-9.8-1.4c-6.9-2.2-13.9-4.2-20.5-7.3c-15.3-7.1-30.4-14.7-45.7-22c-3.8-1.8-7.6-3.5-11.4-5.1
				c-20.5-8.4-39.3-19.5-56.7-33.3c-26.9-21.5-52.4-44.5-76.3-69.1c-18.8-19.3-37.5-38.6-54.5-59.5c-14.9-18.4-28.8-37.6-40.4-58.2
				c-9.7-17.2-17.2-35.6-25.7-53.5c-1.8-3.8-3.1-7.7-4.9-11.5c-7-15.5-14.2-31-21.2-46.6c-2.4-5.3-4.3-10.8-6.1-16.3
				c-4.1-13-8.4-25.9-11.9-39.1c-2.4-9.1-3.4-18.6-5.2-27.8c-0.4-1.8-1.2-3.7-2.2-5.3c-2.2-3.5-5-6.7-7-10.3
				c-1.2-2.1-2.6-2.9-4.7-2.9c-15.8-0.2-31.6-2-47.4-0.2c-8.1,0.9-15.6,3.6-22.1,8.4c-11.1,8.2-22.1,16.5-33.3,24.6
				c-11.5,8.3-23.9,14.2-38,16.8c-21.8,3.9-43.4,3.6-65-1c-5.3-1.1-10.4-3.2-15.5-5c-21.1-7.3-40.5-18-59.2-29.9
				c-15.6-9.8-26.4-23.4-32.3-41.1c-4.8-14.4-6.7-29.1-4.6-44c0.9-6.1,3.7-12.2,6.4-17.8c5.8-11.8,13.6-22.3,23.2-31.4
				c4.2-3.9,8.7-7.1,13.9-9.4c13.5-6.2,27.5-7.5,42.1-5c16.2,2.8,31.9,7.1,47.1,13.4c24.2,9.9,48,20.7,72.5,30
				c19.3,7.4,36.8,18.1,55.1,27.3c16.4,8.3,32.9,16.3,49.3,24.5c4.5,2.3,9,4.7,13.4,7.1c2.7-1.4,2.8-3.3,1.6-5.9
				c-10.8-25-21.5-50.1-32-75.2c-8.2-19.4-15.9-39-24.3-58.4c-12-27.7-21.8-56.2-28.8-85.6c-3.1-13.1-5-26.3-3.1-40
				c1.9-13.4,8.3-24.3,17.2-33.9c4.9-5.3,10.7-9.8,17.5-12.7c7.9-3.4,16.2-4.1,24.6-3.6c14.2,0.9,28.3,2.6,41.7,7.4
				c18.1,6.5,34.8,15.6,47.8,30.3c1.9,2.2,3.5,4.6,5.1,7.1c12.8,19.9,19.9,41.9,24.1,65c2.6,14.3,1.6,28.6,0.6,42.9
				c-0.2,3.4-0.7,6.9-1.1,10.3c-3.1,29.5-14.9,55.6-31.3,79.8c-1.7,2.5-4,4.7-5.8,7.2c-3.9,5.5-7.9,10.8-11.5,16.5
				c-5.2,8.3-3.6,17.5-2.9,26.6c0.1,1.3,0.6,2.5,0.6,3.8c0.1,4.2,1.6,7.3,5.8,8.8c0.3,0.1,0.7,0.3,0.9,0.6
				c4.8,5.6,11.7,6.8,18.3,8.8c39.3,11.6,76.3,28.1,111,50c28,17.8,54.4,37.7,80.4,58.1c20.3,15.9,40.1,32.5,59.8,49.2
				c13.3,11.3,25.7,23.7,37,37c17,19.9,34.5,39.4,49.2,61.1c0.3,0.5,0.6,0.9,1,1.3c16.2,18.8,29.1,39.9,42.2,60.9
				c3.7,6,6.6,12.5,9.6,18.9c2.8,6.1,5.1,12.4,7.8,18.6c4.5,10.6,8.5,21.3,9.7,32.8c0.6,5.7,0.5,11.6-0.3,17.3
				c-0.8,6-4.5,7.2-9.2,3.5c-5.4-4.3-10.6-8.9-15.5-13.7c-19.2-18.9-39.4-36.7-60.1-53.9c-24.7-20.4-48.5-41.8-72.2-63.2
				c-49-44.4-98.5-88.4-148-132.2c-16.5-14.6-33.6-28.4-50.4-42.6c-13.6-11.5-27.2-23-40.7-34.6c-5.2-4.5-10.2-9.3-15.3-13.9
				c-0.3,0.2-0.6,0.5-0.9,0.7c1.1,1.5,2.1,2.9,3.2,4.3c19.4,24.1,38.8,48.1,58.1,72.2c19.6,24.6,39.2,49.2,58.4,74.1
				c20.8,27.1,41.1,54.6,61.7,81.8c8.1,10.7,16.7,21.1,25,31.7c4,5.2,7.8,10.5,11.7,15.7c10,13.4,20,26.8,30.1,40.1
				c7.9,10.5,15.7,21,23.7,31.3c5.1,6.6,10.2,13.2,15.5,19.7c10.4,12.7,20.2,25.7,29,39.5c5.7,8.9,12.3,17.1,18.4,25.7
				C783.3,862.3,786.2,864.9,785,870.1L785,870.1z M409.9,424.4c2.7,9.3,5,17.8,7.6,26.3c7.8,26,19.2,50.6,30.3,75.3
				c19.4,43.1,42.5,84.3,66.3,125.1c5.5,9.4,11.7,18.5,18.6,26.9c16.4,19.7,34.2,38.2,52.8,55.8c21,19.9,43.5,38,66.2,56
				c11.7,9.3,24.1,17.5,37.4,24.4c20.8,10.7,41.5,21.7,61.5,34.1c4.8,2.9,10.1,5,15.1,7.5c0.7,0.4,1.6,0.5,3,0.9
				c-6.4-9-12.1-17.6-18.4-25.8c-16.1-21.1-32.3-42.1-48.5-63.1C631.8,677.5,562,587.3,492,497.1c-17.6-22.7-35.9-44.8-53.9-67.2
				c-2.3-2.8-4.5-5.6-7-8.8C424.7,425.4,417.7,424.7,409.9,424.4L409.9,424.4z M449.9,385.8c-0.7,5.1-0.9,9.7-2,14
				c-0.7,2.8,0,4.4,1.9,6.1c7.5,6.8,14.8,14,22.5,20.6c26.6,23.1,53.2,46.3,80.2,69c34.1,28.7,67.6,57.9,99.4,89.2
				c16.1,15.8,32.5,31.3,48.9,46.7c8.6,8.1,17.6,15.7,26.5,23.5c18.9,16.7,38,33.3,56.8,50.2c13.1,11.8,25.8,24,38.6,36.1
				c8.9,8.5,17.6,17.3,26.5,26c0.8,0.8,1.9,1.4,3.3,2.5c1.1-3.3,1-6.2,0.3-9c-1.2-4.8-2.8-9.4-3.7-14.2
				c-3.2-17.6-10.4-33.6-19.4-48.9c-17.7-30.2-38.5-58.1-61.4-84.6c-62.2-72.2-134.8-132.1-215.3-182.8
				c-18.9-11.9-38.6-22.5-59.3-31.2C479.5,393.1,464.9,388.7,449.9,385.8L449.9,385.8z M382,378.6c-1.3-0.8-2.9-1.9-4.7-2.7
				c-7-3.4-14.1-6.7-21.2-10c-13-6-26.1-11.9-39-18.1c-12.5-5.9-24.7-12.3-37.2-18.2c-7.9-3.7-16-6.9-23.9-10.6
				c-12.8-6.1-25.4-12.5-38.2-18.5c-5.1-2.4-10.5-4.1-15.6-6.3c-22.4-9.6-45.2-17.2-70-16c-10,0.5-19.6,2.1-27.3,9.2
				c-4.5,4.2-9.4,8.1-13.4,12.8c-5.4,6.3-10.8,12.8-13.2,21.1c-1.5,5.4-3,10.9-4.5,16.3c-1.5,5.6-1.3,11.1,0.2,16.7
				c4.4,17,13.4,31.2,24.8,44.3c6.7,7.7,14.7,13.5,23.9,17.7c6.6,3,13.3,5.8,19.8,9c16.6,8.3,34.4,12.8,52.6,15.1
				c12.5,1.5,25.1,2.6,37.4-0.8c11.5-3.2,22.7-7.6,34-11.7c2.2-0.8,4.1-2.3,6.1-3.6c11.6-8.1,23.1-16.4,34.7-24.5
				c8.5-5.9,18.2-8.7,28.2-8.7c14.2,0,28.3,1,42.5,1.6c1.2,0,2.4,0,3.9,0L382,378.6L382,378.6z M415.3,351.5
				c-0.5-4.1-0.9-8.8-1.5-13.4c-1.1-8.8,0.4-17.1,5.5-24.5c3.9-5.7,8.4-11,12.6-16.4c2.8-3.6,5.9-6.9,8.5-10.7
				c11.4-16.4,20.1-34.2,25.1-53.5c4.4-16.7,7.7-33.7,4.7-51.2c-1.7-9.7-2.7-19.5-5.1-29c-2.8-11.1-6.8-21.8-10.1-32.8
				c-2.7-9.1-8.1-16.6-14.3-23.5c-10.5-11.6-24.2-18.5-37.8-25.3c-4.5-2.2-9.6-3.5-14.5-4.5c-6.9-1.3-14-1.9-21-2.9
				c-9.6-1.4-18.9,0.1-27.7,3.9c-2.8,1.2-5.7,2.8-7.7,4.9c-4.4,4.6-8.5,9.5-12.2,14.6c-4.2,6.1-6.1,13.1-6.5,20.5
				c-0.5,9.9,0.9,19.6,2.2,29.3c1.8,13.2,3.6,26.2,8.5,38.7c8.9,22.8,17.4,45.9,26.2,68.8c5.7,14.9,11.6,29.8,17.4,44.7
				c6.6,16.7,13.3,33.4,19.9,50.1c2.5,6.4,5,12.8,7.2,18.5C401.8,355.8,408.4,353.7,415.3,351.5L415.3,351.5z M423,370.7
				c-0.3,0.4-0.6,0.8-0.9,1.2c2.7,2,5.5,3.9,8.9,6.3C429.6,373.2,425.1,373.4,423,370.7L423,370.7z M410.5,363.9
				c-1.6,0.4-2.8,1.3-3.6,2.7C409.3,367.1,410.9,366.9,410.5,363.9z"/>
			<path d="M883.1,892.3c1.2,1.2,2.6,2.3,3.7,3.7c13.8,16.5,25.3,34.5,35.2,53.6c1.2,2.2,2,4.7,2.6,7.1c0.6,2.3-0.2,4.4-2.5,5.5
				c-2,0.9-4,0.4-5.5-1.2c-1.1-1.2-2.1-2.5-2.9-3.9c-8.2-14.5-16.5-29-24.5-43.7c-3.4-6.3-6.2-13-7.3-20.2
				C882.4,892.8,882.8,892.5,883.1,892.3L883.1,892.3z"/>
			<path d="M989.1,815.8c-2.8,0.7-5.5,1.4-8.3,2.1c-22.7,5.8-45.4,11.4-68.6,15.1c-2.8,0.5-5.8,0.6-8.7,0.6c-1.2,0-2.7-0.2-3.6-1
				c-1.1-1-2.2-2.6-2.2-3.9c0-1,1.5-2.4,2.6-2.9c2.5-1,5.2-1.6,7.9-2.2c24.8-5,49.7-8.5,75-9.6c1.9-0.1,3.8,0.2,5.7,0.2
				C989,814.8,989.1,815.3,989.1,815.8L989.1,815.8z"/>
			<path d="M813.1,928.7c0.4,1.2,1,2.5,1.3,3.8c4,20,6,40.2,5,60.7c-0.1,2.5-0.7,5-1.3,7.5c-0.3,1.2-1,2.5-1.9,3.2
				c-1.1,0.8-2.8,1.4-3.9,1.1c-1.1-0.3-2.1-1.8-2.6-3c-0.4-0.9-0.2-2.1-0.1-3.2c0.6-16.9,1.2-33.8,1.8-50.7
				c0.2-5.4,0.3-10.9,0.5-16.3c0-1,0.3-1.9,0.4-2.9C812.5,928.8,812.8,928.7,813.1,928.7L813.1,928.7z"/>
			<path d="M149.9,313c31.4,2.3,58.8,13.6,80.5,37.1c5.1,5.5,8.8,12,10.8,19.3c3.7,13.5-2.1,26.7-14.7,32.9
				c-10.2,5-20.9,5.4-31.9,3.5c-21.4-3.6-40.5-12.5-58-25c-8.8-6.3-16.2-14-21.3-23.7c-2.4-4.6-4-9.3-4.3-14.5
				c-0.7-11.1,4.7-20.3,14.9-24.9C133.5,314.2,141.6,313.2,149.9,313L149.9,313z M203.2,398.6c4.5-0.6,10.4-0.9,16-2.2
				c15-3.6,19.8-13.7,12.6-27.3c-3.1-5.8-7.2-11.5-11.9-16.1c-17.9-17.8-39.5-28-64.6-30.6c-9.1-1-18.2-0.2-26.2,5
				c-7.4,4.8-9.7,11.3-7.4,19.8c1.6,5.9,4.5,11.1,8.3,15.8C148.6,385.5,172.9,396.7,203.2,398.6L203.2,398.6z"/>
			<path d="M341.3,145.2c0.1-6.8,1.1-13.4,3.5-19.8c6.4-17.3,22-25.1,39.8-19.8c7.1,2.1,13.5,5.4,19,10.4
				c23.4,21.3,36.5,47.6,36.9,79.5c0.1,6-1.4,12.3-3.3,18.1c-3.9,12-13.1,18.6-25.3,20.3c-4.3,0.6-9-0.8-13.3-2
				c-9.5-2.8-17.3-8.5-24.1-15.3c-17.5-17.4-29-37.9-32.4-62.6C341.6,151,341.5,148.1,341.3,145.2L341.3,145.2z M351.3,148.4
				c0.5,8.2,2.2,16,4.4,23.7c5,17.3,13.6,32.4,27.6,44.1c5.9,5,12.4,9,20.2,10.2c12.3,2,19.1-1,24.6-12.6c1.5-3.1,2.2-6.5,3-9.9
				c1.4-6.5,1.1-13,0-19.5c-4.2-23.8-14.7-43.9-34.4-58.5c-4.6-3.4-9.9-6.2-15.3-8c-12.2-4.1-22.2,0.8-26.4,13
				C352.9,136.5,352.4,142.5,351.3,148.4L351.3,148.4z"/>
		</g>
	</g>
</g>
</svg>
