<?xml version="1.0" encoding="utf-8"?>
<!-- Generator: Adobe Illustrator 26.0.0, SVG Export Plug-In . SVG Version: 6.00 Build 0)  -->
<svg version="1.1" id="Calque_1" xmlns="http://www.w3.org/2000/svg" xmlns:xlink="http://www.w3.org/1999/xlink" x="0px" y="0px"
	 viewBox="0 0 1000.5 994.9" style="enable-background:new 0 0 1000.5 994.9;" xml:space="preserve">
<style type="text/css">
	.st0{clip-path:url(#SVGID_00000109717613928300916750000011203436575491165091_);}
</style>
<g>
	<defs>
		<rect id="SVGID_1_" x="-114.1" y="-23.3" width="1490.2" height="1117.1"/>
	</defs>
	<clipPath id="SVGID_00000145031072993617644970000013991461766775249798_">
		<use xlink:href="#SVGID_1_"  style="overflow:visible;"/>
	</clipPath>
	<g style="clip-path:url(#SVGID_00000145031072993617644970000013991461766775249798_);">
		<g>
			<path d="M203,626.7c-1.1-1.3-2.4-2.8-3.7-4.3c-6.4-7.7-12.5-15.6-19.2-23.1c-6.3-7-7.2-14.3-3.9-23.1c4-10.9,7.2-22.1,10.4-33.3
				c7.1-24.6,14-49.2,21.1-73.9c0.2-0.7,0.7-1.4,0.6-2.1c-0.7-6.9,2.9-12.6,4.9-18.7c12.3-36.9,24.6-73.8,37.1-110.6
				c2.5-7.4,5.6-14.6,8.5-21.8c2.5-6.2,6.6-10.2,13.8-11.3c8.2-1.2,16.3-3.5,24.5-5.5c38.4-9.1,76.7-18.4,115.1-27.2
				c74-16.9,148.1-33.6,222.2-50.3c2-0.4,3.9-0.8,5.9-1.1c4.8-0.8,8.8,0,13.1,3.2c29.8,21.9,57.9,45.8,86.2,69.4
				c7.5,6.3,15.2,12.4,23,18.4c1.2,0.9,3,1.2,4.5,1.3c23.6,0.8,47.2,1.5,70.9,2.2c24.2,0.7,48.3,1.5,72.5,2.2
				c2.9,0.1,5.2,0.9,7.1,3.2c18.3,21,36.6,41.9,55,62.8c7.9,9,15.8,18.1,23.9,26.9c3.8,4.2,5.3,8.4,2.4,13.8
				c-2.4,4.5-4.6,9.1-6.6,13.7c-6.3,14.5-12.6,29-18.8,43.5c-5.9,13.9-11.2,28-18,41.5c-3.6,7.2-5.3,14.5-5.7,22.2
				c-0.5,9.8-0.7,19.6-1.2,29.4c-0.7,13.1-1.5,26.1-2.3,39.2c-1,16.7-2,33.4-3.1,50.1c-1.4,20.8-2.4,41.8-4.5,62.5
				c-1.3,13.2-4.3,26.1-6.5,39.2c-0.6,3.4-2.6,5.5-5.8,6.5c-4.2,1.2-8.3,2.6-12.6,3.7c-68.5,17.5-137,34.8-205.4,52.3
				c-8.3,2.1-16.6,4.2-24.6,7.2c-21.4,7.8-43.3,13.5-65.4,19c-18.5,4.7-37.2,8.4-55.7,12.9c-25.4,6.2-50.7,13.1-76.1,19.2
				c-23.5,5.6-47.1,10.5-70.7,15.9c-11.3,2.6-22.6,5.4-33.9,8.1c-2.1,0.5-4.4,0.5-6.4,1c-6.1,1.6-9.9-1.2-13.3-5.9
				c-10.5-14.4-21.2-28.7-32-42.8c-27-35.4-54.3-70.6-81.1-106.2c-15.4-20.5-29.9-41.6-45-62.4c-4.6-6.3-6.3-13.5-5.9-21.1
				c0.7-13.4,1.9-26.8,3.1-40.2C201.5,630.5,202.3,628.8,203,626.7L203,626.7z M752.6,322.8c-8,1.4-15,2-21.5,3.7
				c-17.9,4.8-35.6,10.1-53.5,15c-12.4,3.5-24.8,7.1-37.4,9.9c-12.2,2.7-24.9,3.6-36.9,6.9c-33.3,9-66.9,17-99.6,28.1
				c-36.1,12.3-73.5,20.3-110.4,30.1c-54.8,14.6-109.6,28.6-164.5,42.9c-1.5,0.4-2.9,1-4.7,1.7c2.5,3.1,4.5,5.7,6.5,8.3
				c8.8,11.3,18.2,22.2,26.4,34.1c13.3,19.3,25.8,39.1,38.5,58.8c15.6,24.1,31,48.3,46.6,72.4c0.7,1,1.5,2,2.4,3.2
				c12.5-4.5,25.2-7.3,38.1-9.5c10-1.7,19.7-4.9,29.6-7c19.2-4.1,38.4-8,56.9-14.6c16.9-6,34.2-11,51.9-14.4
				c12.5-2.4,24.8-5.6,37.1-8.8c10-2.6,20.1-5.1,29.9-8.4c23.8-8,47.6-15.6,72-21.4c24.9-5.8,49.9-11.4,73.7-21.2
				C739.6,462.9,743.9,393.4,752.6,322.8L752.6,322.8z M938.1,531.5c-0.7-0.1-1.2-0.3-1.7-0.2c-14.2,2.8-28.6,5.2-42.2,10.6
				c-26.6,10.5-54.3,17.4-81.7,25.2c-15.1,4.3-30.3,8.4-45.4,13c-29.5,9.1-58.5,19.5-88.6,27c-40.2,9.9-80.1,21-119.8,32.8
				c-46.8,13.8-94.1,26.2-141.2,39.3c-6.8,1.9-13.5,4.4-20.1,6.7c-1.5,0.5-2.8,1.3-4.7,2.2c1.5,1.1,2.4,1.9,3.5,2.5
				c23.4,14.7,46.8,29.3,70.1,44.2c21.4,13.7,42.8,27.6,64,41.7c3.2,2.1,5.8,2.7,9.5,1.8c53.7-13.7,107.3-27.5,161.1-40.8
				c49.5-12.3,99.2-24,148.8-35.8c9.9-2.4,19.9-4.2,29.9-6.2c0.5-1.3,1-2.5,1.5-3.6c14.1-37.8,28.4-75.5,42.1-113.4
				C928.6,563.1,936.6,548.6,938.1,531.5L938.1,531.5z M224.1,451c2.6-0.5,4-0.7,5.4-1.1c26.9-7,53.7-14.1,80.6-21.1
				c21.1-5.4,42.3-10.6,63.4-15.9c31-7.8,62-15.5,93-23.4c33.8-8.6,66.8-19.9,100.9-27.6c17.2-3.9,33.9-9.5,51.3-12.4
				c31.6-5.3,62.4-13.6,92.7-24c8.8-3,17.8-5.1,27-6.4c2.9-0.4,5.8-1,9.5-1.6c-1.7-1.8-2.6-2.9-3.7-3.8
				c-8.7-7.8-17.3-15.6-26.1-23.2c-22.7-19.6-45.5-39.1-68.1-58.7c-2.2-1.9-4.1-2.1-6.9-1.5c-27,6.5-54,13.1-81.1,19.2
				c-24.6,5.5-49.4,10.3-74.1,15.8c-27.8,6.2-55.5,13-83.3,19.5c-14.8,3.5-29.7,6.9-44.5,10.8c-29.2,7.6-58.2,15.6-87.4,23.2
				c-3,0.8-4.7,1.8-5.7,4.8c-3.5,10.9-7.2,21.7-10.9,32.5c-9.3,26.8-18.8,53.5-28.1,80.2C226.5,440.9,225.6,445.5,224.1,451
				L224.1,451z M378,891.8c181.3-43,361.9-85.8,543.1-128.7c5.4-63.9,10.9-128.2,16.3-192.5c-1.3,1.6-2,3.4-2.7,5.2
				c-14.4,40.6-28.5,81.2-41,122.4c-1,3.2-2.6,5.4-6,6.2c-4.8,1.1-9.5,2.4-14.2,3.7c-52.9,14.5-106.1,27.8-159.5,40.4
				c-34.3,8.1-68.7,15.8-102.5,25.8c-13.4,4-27,7.1-40.6,10.5c-10,2.5-20.2,4.6-30.3,6.9c-1.7,0.4-3.8,0.8-5,1.9
				c-2.4,2.1-4.2,1-6.3-0.3c-17.1-10.7-34.2-21.4-51.4-32c-34.3-21.1-68.7-42-103.5-63.3c0,2,0,4,0,5.9c0.5,14,0.9,28,1.4,42
				c0.6,18.5,1.4,37,1.9,55.6c0.6,23.6,1.9,47.2,0.4,70.9C377.6,878.6,378,885,378,891.8L378,891.8z M758.3,325.7
				c-0.4,0.2-0.8,0.4-1.2,0.5c-0.2,1.8-0.5,3.5-0.6,5.3c-0.8,9-1,18.2-2.4,27.1c-4.3,27-6,54.1-7.5,81.3c-1.1,20.9-2.6,41.7-4,62.5
				c-0.7,9.8-1.5,19.5-2.3,29.1c6.5,5.9,13.2,11.3,19,17.5c5.9,6.3,11,13.4,16.5,20.2c4.2-1.2,8.2-2.3,12.2-3.5
				c27.3-7.7,54.7-14.9,81.8-23.1c19.6-5.9,38.9-13.1,59.4-15.7c4-0.5,7.9-1.6,12.2-2.5c-6.1-6.9-11.9-13.2-17.4-19.6
				c-12-13.9-23.3-28.3-36.5-41.2c-11.9-11.7-23.1-24.2-34.6-36.2c-7.1-7.5-14.3-15-21.5-22.4c-10.2-10.6-20.7-20.9-30.7-31.7
				c-12.5-13.6-24.6-27.7-36.9-41.6C761.8,329.7,760.1,327.7,758.3,325.7L758.3,325.7z M943.5,519c7.8-14.9,15.3-28.6,20.3-43.5
				c0.9-2.8,2-5.5,3.2-8.1c5.6-12.4,11.2-24.8,17.1-37.1c1.4-3,1.3-5.3-0.8-7.9c-4.8-5.7-9.5-11.5-14.1-17.3
				c-12.6-16-25.1-32.1-37.6-48.1c-5.2-6.7-10.5-13.4-15.8-20.1c-1.4-1.8-2.9-3.6-4.3-5.4c-1.9,0.1-3.5,0.4-5.2,0.3
				c-17.8-0.6-35.6-1-53.4-2.1c-27.8-1.7-55.5-3.9-83.2-5.9c-0.9-0.1-1.9,0.1-3.5,0.2c1.2,1.4,1.9,2.3,2.6,3
				c12.7,14,25.4,28,38.2,41.9c5.8,6.3,11.5,12.7,17.6,18.6c15.1,14.5,29.6,29.5,42.9,45.6c8.9,10.8,18.7,20.8,28.2,31.1
				c6.4,7,12.9,13.8,19.1,20.9c5.6,6.4,10.8,13.2,16.3,19.8C935.1,509.6,939.1,514,943.5,519L943.5,519z M736.8,536.5
				c-2.9,1.4-5.1,2.4-7.2,3.4c-11.4,5.5-23.6,8.3-35.7,11.6c-28.1,7.9-56.8,13.9-84.3,24c-9.2,3.4-18.3,7.2-27.7,9.8
				c-19.3,5.2-38.7,9.9-58.2,14.2c-14,3.1-28.1,5.5-41.8,10.2c-12.5,4.3-25.1,8.5-37.8,12.2c-15.3,4.4-31.3,6.2-46.5,11.4
				c-1.5,0.5-3.2,0.7-4.8,1c-13.6,2.2-27.4,3.5-40.6,7.7c-1.3,0.4-2.6,0.7-4.1,1.2c0.6,1.2,0.8,1.8,1.2,2.4
				c7.3,10.8,14.6,21.7,20.4,33.5c2.9,5.9,3.2,7,11.5,4c11.1-3.9,22.3-7.8,33.6-11.1c35.1-10,70.3-19.7,105.5-29.5
				c35.7-9.9,70.8-21.7,107-30.1c45.1-10.5,89.7-22.9,133.6-38c2.1-0.7,4.2-1.6,6.8-2.5c-3.8-5.2-6.7-10.6-10.8-14.5
				C749.8,550.9,742.4,544.8,736.8,536.5L736.8,536.5z M360.4,676.5c-3.5-5.7-6.2-10.4-9.2-14.9c-18.1-27.2-36.3-54.3-54.5-81.6
				c-8.2-12.4-16.5-24.8-24.5-37.4c-13.5-21.1-26.4-42.6-41.5-62.6c-2.4-3.2-4.6-6.5-7-9.7c-0.7-0.9-1.5-1.7-2.7-2.9
				c-10.7,40.6-21.2,80.6-31.5,119.9c16.5,18.1,32.6,35.8,48.6,53.6c10.5,11.8,20.9,23.7,31.2,35.7c1.7,2,3.5,2.8,6.1,2.6
				c5.2-0.5,10.5-0.8,15.8-1c19.6-0.5,39.2-0.8,58.9-1.3C353.1,676.9,355.9,676.7,360.4,676.5L360.4,676.5z M212.1,637.9
				c-0.2,0.3-0.5,0.5-0.6,0.8c-1,12-1.8,23.9-2.9,35.8c-0.2,2.6,0.5,4.5,1.9,6.5c3.6,5,7.2,10.1,10.6,15.2
				c4.5,6.6,8.6,13.5,13.4,19.9c15,19.8,30.6,39.3,45.5,59.3c26.5,35.8,53.5,71.2,82.2,105.2c1.2,1.4,2,3.3,4.2,3.9
				c1.9-23.8,1.6-47.2,1.3-70.6c-0.5-38.7-0.4-77.4-0.6-116.1c0-1.2-0.2-2.4-0.4-4.2c-5.7,0-11.1-0.1-16.5,0
				c-20.7,0.6-41.4,1.3-62.1,1.9c-8.5,0.2-17.1,0.3-25.6,0.5c-2.6,0.1-4.7-0.8-6.2-2.8c-1.7-2.1-3.3-4.3-4.8-6.6
				c-4.3-6.5-8.5-13.1-12.9-19.6c-7.4-10.9-17.1-19.7-26-29.2C212.6,637.8,212.3,637.9,212.1,637.9L212.1,637.9z"/>
			<path d="M803.4,191.3c0.3-1.1,0.5-2.4,1-3.4c1.8-3.6,3.6-7.1,5.6-10.6c12.1-21.9,24.1-43.9,36.5-65.7c5.1-9,10.8-17.7,16.3-26.4
				c1.2-1.8,2.7-3.4,4.2-4.9c1.5-1.5,3.4-2.3,5.4-1c2,1.3,2,3.3,1.1,5.3c-0.3,0.8-0.7,1.7-1.2,2.5c-15.3,26.4-28.9,53.7-46.2,79
				c-4.7,6.9-10,13.4-15.2,19.9c-1.9,2.3-4.5,4-6.7,6C803.9,191.7,803.6,191.5,803.4,191.3L803.4,191.3z"/>
			<path d="M55,255.9c1.1,0.5,2.3,0.9,3.3,1.6c6.8,4.6,13.9,8.7,20.1,13.9c26.2,21.6,51.7,44,75.4,68.4c2.1,2.2,4.1,4.6,6.1,7
				c0.8,1,1.7,2,2,3.2c0.3,1.1,0,2.5-0.6,3.4c-0.3,0.4-2.2,0.3-2.9-0.2c-2.8-2-5.6-4-8.2-6.3c-19.2-17.7-38.4-35.4-57.5-53.3
				c-12.2-11.4-24.1-23.1-36.2-34.6c-0.8-0.7-1.5-1.5-2.2-2.3C54.5,256.4,54.7,256.1,55,255.9L55,255.9z"/>
			<path d="M0.3,373.7c7,0.8,14,1.6,21,2.5c20.3,2.8,40.7,5.2,61,8.7c19.5,3.3,38.8,7.7,58.2,11.7c2.1,0.4,5,0.6,4.8,3.4
				c-0.2,3.2-3.5,2.9-5.6,2.6c-9-1.1-18.1-2-27-3.7c-32.1-6.4-64.1-13-96.1-19.6c-4.6-1-9.2-2.2-13.8-3.3c-1-0.2-1.9-0.7-2.8-1.1
				C0.1,374.4,0.2,374,0.3,373.7L0.3,373.7z"/>
			<path d="M750.2,150.7c1.4-6.9,2.7-13.7,4.2-20.6c2.5-12.1,5-24.1,7.6-36.2c0.7-3.3,2.1-6.6,3.5-9.7c1-2.3,2.6-4.4,6.2-4.2
				c-1.1,3.5-2.3,6.8-3.1,10.2c-3,11.8-5.7,23.6-8.8,35.3c-1.9,7-4.3,13.8-6.6,20.7c-0.5,1.6-1.4,3.2-2,4.8
				C750.8,150.9,750.5,150.8,750.2,150.7L750.2,150.7z"/>
		</g>
	</g>
</g>
</svg>
