<?xml version="1.0" encoding="utf-8"?>
<!-- Generator: Adobe Illustrator 26.0.0, SVG Export Plug-In . SVG Version: 6.00 Build 0)  -->
<svg version="1.1" id="Calque_1" xmlns="http://www.w3.org/2000/svg" xmlns:xlink="http://www.w3.org/1999/xlink" x="0px" y="0px"
	 viewBox="0 0 966.8 966.8" style="enable-background:new 0 0 966.8 966.8;" xml:space="preserve">
<path d="M289,772.7c0.1-0.5,0.2-0.8,0.2-1.2c-1.7-7.7,0.4-15.2,2-22.6c4.6-21.6,6.3-43.5,9.2-65.3c0.4-2.9,0.7-5.8,1.4-8.6
	c0.5-1.8,1.8-3.5,2.6-5.2c0.8-1.6,1.5-3.3,2.2-4.9c20.4-46.4,41-92.7,61.3-139.2c27.2-62.5,54.1-125.2,81.3-187.8
	c20-46.1,40.3-92,60.5-138c3.3-7.5,7.1-14.7,10.9-22c2-3.8,5.3-5.3,9.7-4.6c0.5-1.7,0.9-3.5,1.4-5.2c3.6-12,7.2-24,10.8-36
	c1.9-6.3,6.1-9.8,12.5-11.1c11.1-2.2,22-1.9,33.2,0.7c10.4,2.5,19.9,6.1,28.4,12.5c9,6.8,12.8,16.1,10,25.7c-1.5,5-3.3,10-5.5,14.8
	c-2,4.5-4.6,8.7-7,12.9c-3.6,6.4-7.2,12.8-11,19.1c-1.7,2.8-3.8,5.4-5.4,7.6c-0.7,3-0.9,5.7-1.9,8c-20.1,47-40.2,94-60.4,141
	c-14,32.5-27.9,65.1-42,97.6c-24.2,55.8-48.4,111.6-72.6,167.5c-9.1,21.2-18,42.5-27.1,63.7c-1.6,3.7-3.6,7.1-5.3,10.7
	c-0.6,1.2-0.5,2.6-0.9,3.8c-0.5,1.6-0.9,3.4-1.9,4.6c-1.5,1.9-3.5,3.4-5.4,5c-14.7,12-29.4,24.1-44.1,36.1c-0.6,0.5-1.1,1-1.8,1.3
	c-6.3,3.6-11.5,8.5-16.2,14c-1.2,1.4-2.9,2.5-4.5,3.5c-3.4,2.2-7,4.2-10.4,6.5c-4.2,2.8-8.5,3-13.2,1.6c-0.4-0.1-0.9-0.2-1.3-0.1
	c-6.3,1.5-11.5,4.6-14.3,10.7c-1.4,3-1,5.8,0.9,8.5c4.5,6.2,10.9,8.6,18.2,8.7c5.4,0.1,10.7-0.5,16.1-0.7
	c11.7-0.4,23.4-1.5,35.1,0.2c14.7,2.1,28.2,7.5,39.4,17.2c15.9,13.8,27.1,36.1,16.3,65c-7.1,18.9-17.9,35-34.6,46.8
	c-22.1,15.6-46.5,24.2-73.6,24c-17.7-0.2-34.8-4.2-50.8-12.2c-26.5-13.2-41.8-35.3-48.6-63.6c-3.1-13.1-3.9-26.4-1.1-39.8
	c0.4-2,1.2-4,2.3-5.8c1.3-2.2,3.8-2.8,5.7-1.5c2.1,1.4,2.1,3.3,1.4,5.5c-0.8,2.3-1.5,4.7-1.7,7.1c-1.5,21.4,3.1,41.5,13.8,59.9
	c10.6,18.3,26.9,29.7,46.9,36c39.9,12.6,75.8,4.3,107.8-21.6c15.8-12.8,25.1-30.2,28.2-50.3c3-19.2-5.1-34.5-20.1-46.1
	c-12.6-9.7-27.3-14.2-43.2-14.3c-10.8,0-21.6,0.7-32.4,0.7c-5.1,0-10.2-0.3-15.1-1.4c-6.6-1.4-11.9-5.3-15.8-10.8
	c-3.4-4.7-3.9-9.7-1.4-14.9c3.9-8.1,10.8-12.2,19.3-13.9C287.9,772.9,288.4,772.8,289,772.7L289,772.7z M542.5,237.3
	c-63.5,150.2-127.4,300-194,448.9c4.6,2.3,8.6,4.3,12.6,6.3c0.8-1.8,1.5-3.3,2.2-4.8c26.9-62.2,53.8-124.5,80.8-186.7
	c32.7-75.3,65.5-150.5,98.2-225.8c4.5-10.3,8.9-20.5,13.5-30.9C551.7,242.1,547.3,239.8,542.5,237.3L542.5,237.3z M526.2,228.7
	c-65,149.8-129.9,299.3-194.9,449c4.1,2,7.6,3.7,11.8,5.8c63.4-150.3,129.4-299.2,195.8-448.1C534.3,232.9,530.1,230.7,526.2,228.7
	L526.2,228.7z M377.7,700.6c1-2.2,1.9-4,2.7-5.9c3.2-7.8,6.4-15.7,9.7-23.4c27.8-64.7,55.4-129.4,83.6-193.9
	c16.8-38.4,34.7-76.2,51.8-114.4c13.2-29.6,26-59.4,38.9-89.1c2.9-6.7,5.8-13.5,8.7-20.4c-4.5-2.4-8.9-4.6-12.6-6.5
	c-64.5,149.6-128.9,299-193.3,448.6C370.8,697.2,374,698.8,377.7,700.6L377.7,700.6z M326.3,675.4c65.1-149.8,130.1-299.3,195.2-449
	c-2.6-1.4-5.7-3-8.9-4.7c-65.2,149.7-130.3,299.2-195.5,448.9C319.6,671.9,322.6,673.5,326.3,675.4L326.3,675.4z M589.8,209.1
	c5.9-10.3,12.3-21,18.2-32c2.6-4.8,4.3-10.2,6.3-15.3c2.7-7.1-0.1-12.3-5.5-16.7c-1-0.8-2-1.6-3.1-2.3c-15.4-10-32.2-14.3-50.5-13
	c-3.1,0.2-4.6,1.6-5.6,4.4c-2.9,8.7-6.1,17.3-9,25.9c-1.7,5.2-3,10.6-4.4,15.4C554.4,186.9,572.2,198.1,589.8,209.1L589.8,209.1z
	 M374.9,706.4c-20.8-10-41.1-19.8-61.5-29.6c-2.5,21.6-4.9,42.7-7.3,64c6.5-0.4,11.9,2.1,16.4,6.2
	C340,733.5,357.2,720.2,374.9,706.4z M520.1,208.8c2.5-3,5.2-5.1,5.7-9C521.9,201.7,519.5,205.2,520.1,208.8z"/>
<path d="M543.8,73.8c-1-1.3-2-2.5-2.8-3.8c-9.8-16.2-19.5-32.3-29.2-48.5c-1.4-2.3-2.5-4.9-3.2-7.5c-0.9-3,0.5-5.9,2.9-7.3
	c2.3-1.3,5.4-1,7.6,1c1,0.9,2,1.9,2.6,3.1c8.8,15.8,17.8,31.5,21.7,49.4c0.8,3.7,1.3,7.5,1.8,11.3c0.1,0.7-0.3,1.4-0.4,2.2
	C544.4,73.7,544.1,73.8,543.8,73.8L543.8,73.8z"/>
<path d="M692,125.9c0.9-0.8,1.9-1.6,2.8-2.4c20.4-15,42.1-27.5,66.8-34.2c2.1-0.6,4.2-1,6.4-1.3c2.2-0.2,4.3,0.3,5.1,2.7
	c0.8,2.5-0.5,4.2-2.6,5.4c-0.9,0.5-1.8,1-2.7,1.3c-20.1,8.4-40.2,16.8-60.4,25.1c-4,1.6-8.3,2.7-12.4,3.9c-0.9,0.3-1.9,0.2-2.8,0.3
	C692.2,126.4,692.1,126.1,692,125.9L692,125.9z"/>
<path d="M619.5,75.1c0.5-4.1,1-8.2,1.7-12.3c3-18,6.7-35.9,12.4-53.3c0.7-2.2,1.6-4.4,2.7-6.6c1-2,2.7-3.2,5.1-2.9s3.7,1.9,4.1,4.2
	c0.3,1.5,0.3,3.1,0,4.6c-4.2,18.9-9.8,37.4-17.8,55.1c-1.6,3.4-3.8,6.6-5.7,9.9c-0.4,0.7-1.1,1.2-1.7,1.7L619.5,75.1L619.5,75.1z"/>
<path d="M584.4,58.9c-0.6-1.5-1.4-2.9-1.7-4.4c-1.9-8.3-3.7-16.6-5.3-25c-0.3-1.5-0.1-3.4,0.5-4.8c0.4-1,1.9-2.1,3-2.1
	c0.9-0.1,2.3,1.1,2.8,2c0.6,1.1,0.7,2.6,0.8,4c0.3,8.1,0.5,16.2,0.7,24.2c0.1,2,0.2,4,0.4,5.9C585.2,58.8,584.8,58.9,584.4,58.9
	L584.4,58.9z"/>
<path d="M676,84.3c3.6,0.1,5.3,3,3.5,5.6c-0.8,1.2-2.1,2.2-3.5,2.9c-6,3.3-12.1,6.5-18.2,9.7c-0.5,0.3-1.3,0.2-1.9,0.2
	c0.1-0.6,0.1-1.4,0.4-1.9c4.2-6.8,10.2-11.7,17-15.7C674.3,84.6,675.4,84.5,676,84.3L676,84.3z"/>
<path d="M587.5,148c2,0,7,4,6.9,5.6c-0.1,1.5-4.9,5.4-6.7,5.4c-3.1,0.1-5.6-2.3-5.6-5.4C582.1,150.5,584.5,148,587.5,148L587.5,148z
	"/>
<path d="M595.7,164.9c0.5-0.1,1-0.3,1.5-0.4c1.7-0.4,3.9-0.9,4.2,1.3c0.2,1.4-1,3.4-2.1,4.5c-1.4,1.4-3.2,0.7-4.5-0.8
	c-0.5-0.6-1.4-0.8-2-1.3c-0.8-0.7-2.2-1.8-2-2.2c0.3-1,1.4-1.9,2.4-2.4c0.5-0.3,1.6,0.5,2.4,0.8
	C595.6,164.4,595.7,164.6,595.7,164.9L595.7,164.9z"/>
<path d="M604.2,149.8c2,0,4.8,2.4,4.1,4.1c-0.5,1.4-2.5,2.6-4.1,3.1c-1.9,0.6-3.8-1.5-3.7-3.6C600.6,151.4,602.2,149.8,604.2,149.8
	L604.2,149.8z"/>
<path d="M598.3,153.2c0.8,1.4,1.6,2.3,1.6,3.1c-0.1,0.6-1.2,1.2-1.9,1.8c-0.6-0.7-1.6-1.4-1.8-2.2
	C596.1,155.3,597.2,154.5,598.3,153.2L598.3,153.2z"/>
<path d="M597.5,148c-0.8-1-1.7-1.7-1.5-2.1c0.2-0.7,0.9-1.5,1.6-1.7c0.4-0.1,1.5,0.9,1.5,1.4C599,146.3,598.2,146.9,597.5,148
	L597.5,148z"/>
<path d="M612.7,161.9c-1,0.7-1.7,1.6-2.1,1.5c-0.6-0.2-1.1-1.1-1.6-1.7c0.5-0.5,1.1-1.3,1.7-1.3
	C611.2,160.4,611.7,161.2,612.7,161.9z"/>
<path d="M595.2,146.7c-1,0.8-1.5,1.6-2,1.6c-0.5,0-1.2-0.9-1.4-1.5c-0.1-0.4,0.7-1.3,1.2-1.4C593.5,145.4,594.1,146,595.2,146.7
	L595.2,146.7z"/>
</svg>
