<?xml version="1.0" encoding="utf-8"?>
<!-- Generator: Adobe Illustrator 26.0.0, SVG Export Plug-In . SVG Version: 6.00 Build 0)  -->
<svg version="1.1" id="Calque_1" xmlns="http://www.w3.org/2000/svg" xmlns:xlink="http://www.w3.org/1999/xlink" x="0px" y="0px"
	 viewBox="0 0 977.3 977.3" style="enable-background:new 0 0 977.3 977.3;" xml:space="preserve">
<style type="text/css">
	.st0{clip-path:url(#SVGID_00000152983875138904239600000016005965044327342743_);}
</style>
<g>
	<defs>
		<rect id="SVGID_1_" x="-95.7" y="-50.8" width="1117.1" height="1117.1"/>
	</defs>
	<clipPath id="SVGID_00000131333922516806766320000011278186896154058938_">
		<use xlink:href="#SVGID_1_"  style="overflow:visible;"/>
	</clipPath>
	<g style="clip-path:url(#SVGID_00000131333922516806766320000011278186896154058938_);">
		<g>
			<path d="M339.6,414.6c-0.9-0.1-1.4-0.2-2-0.3c-4.5-0.7-6.8-3.2-6.7-7.8c0.3-18.2,0.8-36.4,1.1-54.5c0.1-7.6-0.3-15.3-0.6-22.9
				c-0.1-1.9-0.6-3.8-1.2-5.6c-2-5.6,0.1-9.4,6-10.5c4.8-0.9,4.7-0.9,5-5.8c0.9-18.9,1.8-37.8,2.9-56.6c0.4-6.9,3.1-12.9,6.7-19
				c11-19,28.2-31.7,44.4-45.4c21.7-18.3,45-34.4,68.6-50.1c12.3-8.2,25.2-15.6,37.8-23.3c18.5-11.2,37-22.4,55.6-33.4
				c8.4-5,17-9.8,25.8-14.2c4.1-2.1,8.6-3.6,13.1-4.6c6.8-1.5,11.7,2.4,12.6,9.3c0.1,1.1,0.7,2.2,1,3.3c0.8,3.4,1.9,6.9,2.1,10.3
				c0.4,6.3,0.2,12.7,0.3,19.1c0,1.6,0.1,3.2,0.2,5.5c2.8-1.5,5.1-2.8,7.5-3.9c3-1.4,6-3.1,9.2-4c8.4-2.3,14.7,1.4,16.4,10
				c1.8,9.3,3.1,18.6,4.7,28c0.2,1,0.3,1.9,0.5,3.2c2.2-0.6,4.2-1.2,6.2-1.7c7.9-2,12.2,0.4,14.3,8.1c0.7,2.7,1.3,5.5,1.3,8.3
				c0.3,25.1,0.6,50.2,0.8,75.2c0,3.2-0.4,6.3-0.6,9.9c1.1,0.1,2.1,0.1,3.1,0.2c6.1,0.2,12.2,0.3,18.2,0.7c4.8,0.4,7.4,2.5,7.8,7.5
				c0.6,7.1,0.9,14.4,0.5,21.5c-1,17.5-0.9,35-0.1,52.6c0.8,19.6,1.7,39.2,0.7,58.9c-0.7,14.1-0.3,28.2-0.8,42.2
				c-0.7,21.3-2.1,42.7-2.7,64c-0.3,11.3,0.3,22.7,0.5,34c0.3,15.9,0.7,31.8,0.8,47.7c0.2,52.5,0.2,105.1,0.4,157.6
				c0,11.2,0.9,22.3,1.1,33.5c0.2,15,0.1,30,0.2,45c0,4.2,0.3,8.3,0.5,12.5c0.3,5.3-2.2,8.4-7.4,9.4c-18.8,3.6-37.7,3.7-56.8,3.7
				c-12.2,0-24.3,0.3-36.5,0.5c-17.2,0.4-34.3,0.9-51.5,1.5c-6.4,0.2-12.9,1.1-19.3,1c-10.1-0.1-20.2-0.6-30.2-1.3
				c-23.6-1.8-47.2-2.6-70.8-1.8c-3.2,0.1-6.3,0.4-9.5,0.6c-1.5,0.1-2,0.7-2.1,2.2c-2,21.2-8.9,41-18.9,59.6
				c-3,5.7-7.9,10.4-12.1,15.3c-1.7,2-4.2,3-6.9,1.8c-2.6-1.2-3.7-3.4-4-6.3c-0.5-4.2-1.5-8.4-2.3-13.2c-3.5,1.8-6.4,3.3-9.3,5
				c-3.8,2.3-7.5,4.7-11.4,7c-1.3,0.8-2.8,1.3-4.3,1.6c-2.9,0.5-4.9-0.9-5.8-3.7c-1.1-3.2-0.9-6.2,0.9-9.1
				c4.3-7.1,8.2-14.3,12.7-21.3c6.8-10.5,11.3-21.9,14.9-33.8c0.1-0.5,0.1-1,0.2-2c-1.8,0-3.4,0.2-5,0c-3.1-0.6-6.2-1.2-9.1-2.3
				c-4.6-1.7-6.2-5.7-6.5-10.2c-0.5-7-0.9-14-1.3-20.9c-0.8-13.3-1.5-26.7-2.2-40c-0.1-2.1-0.6-3-2.9-3.2c-6-0.6-8.3-3.5-8.9-9.7
				c-2.2-23.7-1.3-47.4-1.3-71.1c0-4.1,0-8.2,0-12.3c0-5,1.8-6.7,6.8-6.4c1.1,0,2.1,0.1,3.5,0.2c0-1.3,0-2.4,0-3.4
				c-0.8-18.6-1.4-37.2-2.3-55.8c-0.5-10.6-1.8-21.2-2-31.8c-0.5-31.3-0.7-62.7-1-94c-0.1-12.3-0.3-24.5-0.5-36.8
				c-0.1-6.9-0.1-13.8-0.1-20.7C339.6,416.7,339.6,415.8,339.6,414.6L339.6,414.6z M687.3,821.4c-0.5-5-1.1-9.7-1.5-14.3
				c-0.3-3.3-0.6-6.5-0.7-9.8c-0.5-11.7-1.2-23.4-1.2-35.1c0-11.3,0.8-22.7,0.9-34.1c0.2-21-0.1-42,0.1-63c0.2-15.3,1.3-30.7,1.4-46
				c0.2-28-0.1-56,0.1-84c0.1-19.5,0.6-38.9,1.1-58.3c0.3-13.8,0.9-27.6,1.2-41.4c0.2-9.3,0-18.5,0.1-27.8c0.2-14,0.5-28,0.9-42
				c0.5-18.8,1.2-37.6,1.6-56.4c0.2-10.9,0.2-21.8,0.3-32.7c0.1-7.8,0.3-15.6,0.3-23.4c0-3.1-1.9-4.7-5-4.7c-9.3,0-18.6,0-28-0.1
				c-6.9,0-13.8-0.1-20.7,0c-11.1,0.2-22.2,0.9-33.2,0.9c-60.2-0.2-120.3-0.6-180.5-1c-22.8-0.1-45.6-0.3-68.5-0.4
				c-1.2,0-2.5,0-3.8,0c0.1,2.5,0.3,4.7,0.3,6.9c0.1,12.4,0.1,24.7,0.1,37.1c0,9.8-0.2,19.6-0.5,29.4c-0.4,12.4-1.5,24.9-1.5,37.3
				c0.2,41.4,0.8,82.7,1.4,124.1c0.1,5.6,0.5,11.3,1,16.9c1.8,18.8,4.2,37.6,5.3,56.5c1.2,19.5,1.3,39,1.7,58.6
				c0.3,14.3,0.1,28.5,0.6,42.8c0.4,13.3,1.7,26.7,1.9,40c0.5,37.8,0.6,75.6,0.9,113.4c0,6,0.1,6,5.9,6.6c0.4,0,0.7,0.1,1.1,0.1
				c20.1,0.9,40.3,1.8,60.5,2.5c14,0.5,28,0.7,42,1.1c20.3,0.6,40.5,1.7,60.8,1.9c20.5,0.3,41.1-0.2,61.6-0.3
				c22.7-0.1,45.5,0.1,68.2,0C671.4,822.5,679.5,821.8,687.3,821.4L687.3,821.4z M660.8,241.4c0.2-0.6,0.3-0.9,0.3-1.1
				c0.2-28.9,0.7-57.8-1.9-86.6c-0.2-2.2-1-2.9-3.1-2.2c-5.3,1.7-10.6,3.3-15.9,4.9c-7,2.1-14,4-20.8,6.2c-3.7,1.2-7.2,3-10.9,4.3
				c-13.2,4.9-26.5,9.6-39.6,14.5c-12.5,4.7-24.9,9.7-37.5,14.2c-21.2,7.5-42.7,14.2-63.8,22c-22.8,8.4-46,15.3-69.8,20.2
				c-2.8,0.6-5.6,1.4-8.4,2c0.8,0.7,1.4,0.8,2,0.8c47.3,0,94.5,0.2,141.8,0c34.2-0.1,68.3-1.1,102.5,0.7
				C643.9,241.8,652.3,241.4,660.8,241.4L660.8,241.4z M367.2,239.9c0.1,0.3,0.2,0.6,0.4,0.9c1.6-0.3,3.2-0.5,4.7-1
				c5.3-1.6,10.5-3.6,15.9-4.7c18.3-3.8,36.2-9,53.7-15.1c26.3-9.1,52.4-19.1,78.5-28.9c25.4-9.5,50.7-19.5,76.2-28.6
				c12.5-4.5,24.5-10.6,37.9-12.8c1.6-0.3,1.7-1.3,1.5-2.6c-0.7-6.6-1.5-13.2-2.2-19.8c-0.5-4.9-0.8-9.8-1.2-14.7
				c-0.2-2.2-1.2-2.9-3.2-2.1c-1.8,0.8-3.6,1.6-5.4,2.6c-10.6,5.3-21.1,10.9-31.8,15.9c-8.6,4-17.7,7.2-26.4,11.1
				c-14.5,6.5-28.8,13.3-43.2,20.1c-13.7,6.4-27.5,12.5-40.8,19.4c-23.9,12.3-47.7,24.7-70.7,38.7c-12.4,7.5-26,12.8-39.1,19.1
				C370.4,238.4,368.8,239.2,367.2,239.9L367.2,239.9z M360.5,235.1c0.9-0.4,1.5-0.6,2.1-0.9c4.7-2.2,9.4-4.5,14-6.7
				c16.3-7.8,32.2-16.4,48-25.2c24.3-13.4,49.1-26.1,73.8-38.8c26.5-13.6,53.1-27.1,79.7-40.4c6.5-3.3,13.3-5.9,19.9-8.9
				c4.8-2.2,4.7-2.3,4.4-7.6c-0.4-8.6-0.7-17.2-1.1-25.9c-0.2-3.4-0.3-3.8-3.7-3.1c-3.5,0.7-7.1,1.7-10.2,3.4
				c-8.8,4.8-17.4,10.1-26.1,15.1c-9.1,5.2-18.3,10-27.3,15.3c-8,4.8-15.8,9.9-23.7,15.1c-6.7,4.4-13.1,9-19.8,13.4
				c-5.2,3.4-10.8,6.1-15.8,9.6c-13.7,9.5-27.3,19.3-40.9,29c-4.3,3.1-8.6,6.4-12.7,9.8c-14.4,12-29.5,22.9-45.3,33
				C370,225.1,364.4,228.9,360.5,235.1L360.5,235.1z M404.4,836.2c-5,0-10,0-14.9,0.1c-0.4,0-1.2,0.8-1.2,1.4
				c-2,13-6.6,25.3-11.4,37.5c-0.2,0.5-0.2,1-0.3,1.7c6.3,1,5.2,7.3,8.3,11.1C393.1,871.1,398.7,853.4,404.4,836.2L404.4,836.2z
				 M346.6,749.4c0.4-0.1,0.9-0.1,1.3-0.2c-0.6-27.4-1.2-54.8-1.8-82.1c-3.2-0.5-4.1,0.3-4.4,3.1c-1.1,9.9,0.1,19.8,0.7,29.6
				c1,15.9,1,31.8,3.6,47.5C346.1,748.1,346.4,748.7,346.6,749.4L346.6,749.4z M339.1,404c0.4,0,0.7,0,1,0v-78.2
				C335.8,329.9,334.8,396.6,339.1,404L339.1,404z"/>
			<path d="M525,380.7c-0.3-4.3-0.6-8.4-0.7-12.4c-0.1-5.2,2.4-8.9,6.9-11.5c9.8-5.6,19.8-5,29.8-0.8c1.2,0.5,2.3,1.2,3.2,2.1
				c5.2,5.1,9.9,10.7,13,17.4c0.9,2,1.3,4.3,2.1,6.7c7.3-6.9,16.4-8.2,25.8-8.5c6.6-0.2,12.2,2,17.2,6.3
				c10.6,9.1,15.8,20.7,13.8,34.4c-1.6,11.1-8,20.1-16.8,27.2c-0.6,0.5-1.3,1-2.1,1.5c0.2,0.5,0.3,0.9,0.6,1.2
				c7.4,9.6,9.5,20.8,8.3,32.5c-1.5,13.7-12.5,23.6-27,25.5c-9,1.2-16.7-1.4-23.7-6.6c-3.5-2.6-5.7-6.1-7.1-10.2
				c-0.3,0.3-0.6,0.5-0.7,0.8c-4,8.5-11.2,13.5-19.2,17.3c-6,2.9-12.1,2-18.1,0c-2.2-0.7-3.3-0.4-4.2,1.8c-3,7.7-5.9,15.4-9.1,23
				c-8.3,20.2-14.8,41-19,62.4c-5.3,27.3-7.3,54.7-5.4,82.4c0.4,6,1.7,12,2.7,18.1c0,0.3,0.3,0.6,0.7,1.4c0.5-1.4,0.8-2.3,1.1-3.2
				c7.5-20.5,16.5-40.2,29-58.1c5.3-7.5,12-14.1,18.5-20.7c6.5-6.7,14.7-10.5,23.6-13c1.7-0.5,3.6-0.6,5.4-0.5
				c3.1,0.2,4.9,2.3,5.9,5.2c3,9.2,1.9,18.3-0.1,27.5c-0.8,3.8-1.9,7.7-3.6,11.1c-6.7,13.4-12.8,27-22.5,38.8
				c-11.3,13.7-25.5,22.9-41.4,29.7c-4.2,1.8-8.7,3-13.5,4.6c0.1,0.6,0.3,1.7,0.5,2.8c0.6,3-0.6,5.3-2.9,6c-2.4,0.7-4.8-0.4-5.9-3.1
				c-0.7-1.7-1.2-3.5-1.4-5.2c-1.2-14.7-3.2-29.3-3.2-44c-0.1-22,2.1-43.9,5.3-65.7c4.3-28.7,12.5-56.1,23.7-82.8
				c2.9-6.8,5.4-13.8,8-20.8c-3.6-2.3-7.4-4.7-11.1-7.2c-14.5-10-18.3-30-8.5-44.5c0.2-0.4,0.4-0.8,0.8-1.5c-1.3-0.4-2.4-0.7-3.5-1
				c-18-4.5-29.1-28.6-23.4-43.5c4.8-12.5,14.6-19.5,27-23.5c6.5-2.1,12.9-1.2,19.4,0.2C523.8,380.5,524.4,380.6,525,380.7
				L525,380.7z M569.4,480.8c0.2-0.2,0.4-0.4,0.6-0.5c4.2,2.2,8.7,4,12.6,6.6c7.4,4.8,14.6,4.8,22.1,0.7c4.2-2.3,6.7-5.9,7.3-10.6
				c1-8.6,0.2-17.1-3.8-24.9c-1.8-3.4-4.3-6-8.1-7.2c-1.2-0.4-2.4-1-3.3-1.8c-2.7-2.2-2.3-5.1,0.9-6.3c2.1-0.8,4.4-1.4,6.6-1.5
				c7-0.3,11.7-4,15-9.8c1.5-2.6,3-5.2,4.2-7.9c0.8-1.8,1.4-3.9,1.3-5.8c-0.2-11.4-5.9-19.9-14.8-26.6c-0.8-0.6-2-1-3-1.2
				c-11-1.7-21.2,1-30.7,6.6c-0.9,0.5-2.3,0.8-3.2,0.5c-0.5-0.1-1-1.6-1-2.5c0.1-5.5-1.9-10.1-5.3-14.2c-1.6-2-3.5-3.8-4.8-5.9
				c-4.6-7.6-20.5-8.5-26-4.2c-1.1,0.8-2,2.4-2.2,3.7c-0.9,5.8,1.2,10.9,4.3,15.7c0.8,1.3,2,2.6,2.3,4c0.3,1.5,0.2,3.7-0.8,4.7
				c-0.8,0.9-3,0.9-4.5,0.8c-1-0.1-2.1-0.8-2.8-1.6c-1.8-2-4-2.7-6.5-3c-2-0.2-3.9-0.7-5.9-0.9c-13.1-1.4-23,4-30,14.8
				c-1.8,2.8-2.7,6.7-2.7,10c0,9.5,9.2,20.7,18.5,22.8c3.9,0.9,8.1,0.9,12.1,1.2c3.7,0.3,5.9,1.7,6.3,4.1c0.4,2.5-1,4.6-4.3,6.3
				c-1.1,0.6-2.4,0.9-3.4,1.7c-5.8,4.5-8.1,14.8-5.4,21.7c4.8,12.2,14.4,18.8,26.3,22.5c2.3,0.7,5.3,1,7.4,0.2
				c5.8-2.2,11-5.5,14.1-11.4c1.2-2.2,2.6-4.4,4.2-6.3c1.9-2.3,4.5-1.7,5.5,1.1C569,477.8,569.1,479.4,569.4,480.8L569.4,480.8z
				 M497,705.5c4.8-2.1,9.2-3.9,13.5-5.8c15.2-6.7,28.6-15.7,39-28.9c6.6-8.3,10.8-17.8,15.7-27c5-9.5,6.9-19.6,7.4-30.2
				c0-1-0.1-2.1-0.2-3.4c-8.4,1.5-16.4,2.8-23.2,8.1c-12.3,9.6-22.6,20.8-29.1,35.1c-6.1,13.4-11.9,26.9-17.8,40.3
				c-1.2,2.7-2,5.6-6,5.5C496.6,701.5,496.7,703.3,497,705.5L497,705.5z"/>
			<path d="M567.5,431.1c1.3,3.8,0.8,6.7-1.8,9.1c-3.9,3.6-8.6,5.7-13.9,4.6c-7.5-1.5-10.5-11.3-5.8-18.2c3.8-5.6,13.4-8.4,19.6-5.8
				c3.4,1.5,5.1,5.1,3.5,8c-0.7,1.3-1.5,1.8-3.5,1.6c-3.7-0.5-7.6-0.5-11.3,0c-2.7,0.3-3.8,2.6-3.3,5.1c0.5,2.3,2.1,3.4,4.9,3.1
				c4.4-0.5,8.7-1.4,10.4-6.5C566.5,431.8,566.9,431.7,567.5,431.1L567.5,431.1z"/>
		</g>
	</g>
</g>
</svg>
