<?xml version="1.0" encoding="utf-8"?>
<!-- Generator: Adobe Illustrator 26.0.0, SVG Export Plug-In . SVG Version: 6.00 Build 0)  -->
<svg version="1.1" id="Calque_1" xmlns="http://www.w3.org/2000/svg" xmlns:xlink="http://www.w3.org/1999/xlink" x="0px" y="0px"
	 viewBox="0 0 983.8 983.8" style="enable-background:new 0 0 983.8 983.8;" xml:space="preserve">
<style type="text/css">
	.st0{clip-path:url(#SVGID_00000180330673490027919150000010876419284710131386_);}
</style>
<g>
	<defs>
		<rect id="SVGID_1_" x="-135" y="-153.3" width="1490.2" height="1117.1"/>
	</defs>
	<clipPath id="SVGID_00000156584063001628012460000000239695130968961192_">
		<use xlink:href="#SVGID_1_"  style="overflow:visible;"/>
	</clipPath>
	<g style="clip-path:url(#SVGID_00000156584063001628012460000000239695130968961192_);">
		<g>
			<path d="M176.3,697.8c-5.4,0-9.7,0.2-14,0c-15.8-0.7-31.6-1.6-47.4-2.4c-8-0.4-16-0.6-23.9-1.1c-4.3-0.3-8.6-0.7-12.9-1.6
				c-4.4-0.9-5.5-2.6-5.9-7.2c-0.2-2.9-0.3-5.8-0.5-8.7c-1.5-23.2-3.5-46.4-4.2-69.7c-0.9-27.8-0.9-55.6-0.8-83.4
				c0.1-28.2,1-56.3,1.3-84.5c0.4-31.1,0.5-62.2,0.9-93.2c0.1-8.7,0.9-17.4,1.2-26.1c0.3-10,0.4-20,0.6-30c0.1-4.4,0-8.7,0.2-13.1
				c0.4-7.2,5.2-12.2,12.4-12.3c14.9-0.4,29.8-0.5,44.7-0.6c2.2,0,4.4,0.2,6.5,0c19.6-1.7,39.2,0,58.9,0.5c3.8,0.1,7.6,0.6,11.9,1
				c0.1-2.2,0.4-4.3,0.4-6.5c-0.1-10.5-0.4-21.1-0.3-31.6c0.1-9.5,0.6-18.9,1.1-28.3c0.3-6.6,2.2-8.5,8.7-9.8
				c29.1-5.8,58.5-8.8,88.3-8.4c11.8,0.2,23.6-0.8,35.4-0.8c12,0,24,0.3,36,0.6c22,0.6,44,0,65.9-2c15.8-1.4,31.6-1,47.4,0.9
				c15.8,1.9,31.6,1.1,47.4,0.9c34.5-0.5,69.1-1.1,103.6-1.3c34.9-0.2,69.8,0,104.7,0.1c6.9,0,13.8,0.9,20.7,1.3
				c18.9,1.1,37.7,2.1,56.6,3.1c9.1,0.5,13.6,5.7,12.9,14.9c-1.5,19.4-3.2,38.7-4.5,58.1c-0.8,11.4-1.1,22.9-1.7,34.7
				c1.3,0.5,2.8,1.1,4.3,1.6c24.2,7.3,48.3,14.6,72.6,21.7c4.4,1.3,7.6,3,8.5,7.9c1.2,6.4,3,12.8,3.7,19.2
				c1.5,15.7,3.3,31.5,3.6,47.3c0.7,32.9,0.4,65.8,0.6,98.7c0.1,15.5,0.5,30.9,0.8,46.3c0.3,20.7-0.4,41.4-1.2,62.1
				c-0.7,18.9,0.3,37.8,0.4,56.7c0.2,22.3,0.1,44.7,0.3,67c0.1,12.9,0.4,25.8,0.5,38.7c0,8.5,0,17.1-0.4,25.6
				c-0.2,5.2-0.4,5.7-5.5,6.4c-7.2,1.1-14.4,2-21.7,2.2c-15.6,0.6-31.3,0.1-46.9,1.2c-17.1,1.2-34.1,0.1-51.2-0.8
				c-5.4-0.3-10.9-0.1-16.3-0.2c-32.2-0.1-64.3-0.4-96.5-0.3c-32.7,0.1-65.5,0-98.2,1c-26,0.8-51.9,3.1-77.8,4.6
				c-14.9,0.9-29.8,1.7-44.6,2.4c-24.9,1.2-49.7,3.1-74.6,3.4c-36.2,0.5-72.4,0.2-108.5-0.3c-18.1-0.3-36.3-1.9-54.4-2.9
				c-6.4-0.3-12.7-0.9-19.1-0.8c-6.8,0-13.3-1.5-19.8-3.2c-2.5-0.7-4.1-2.4-4.8-4.8c-0.7-2.6-1.3-5.3-1.4-8
				c-1.4-24.7-2.6-49.4-3.9-74C176.2,706.4,176.3,702.6,176.3,697.8L176.3,697.8z M874.5,506.2V321.8c-3.3-0.9-6.7-2-10.2-2.7
				c-12.9-2.6-25.3-6.5-37.4-11.6c-12.1-5.1-13.5-7.3-13.7-20.4c-0.1-14.4,0.7-28.7,2.7-42.9c1.1-7.9,1.9-15.8,1-24.4
				c-6.9,0-13.6-0.1-20.2,0c-39.8,0.6-79.6,1.4-119.4,1.7c-38.2,0.3-76.3,0.1-114.5,0.1c-105.4,0.1-210.9,0.3-316.3,0.4
				c-1.9,0-3.9,0.2-5.9,0.3c-1.5,16.8-2.9,32.9-4.3,49.3c2.3,0.1,4.3,0.4,6.2,0.4c26.7-0.2,53.4-1.5,80-3.9
				c10.7-0.9,21.4-1.5,32.1-0.7c10.9,0.8,21.8,1.2,32.7,1.4c18.9,0.3,37.8,0,56.7,0.5c26.5,0.7,53,1.9,79.5,2.9
				c21.4,0.8,42.9,1.4,64.3,2.3c6.5,0.3,13.1,0.9,19.5,2c5.3,0.9,8.7,4.6,9,9c0.3,5.6,0.5,11.2,0.5,16.8c0.1,10.2,0.1,20.4,0,30.5
				c0,31.6,0.2,63.3-0.2,94.9c-0.5,37.4-1.4,74.9-2.1,112.3c-0.4,18.9-0.8,37.8-0.9,56.7c-0.2,25.8-0.2,51.6-0.1,77.4
				c0,3.2,0.8,6.4,1.6,9.6c1.1,4.3-1.1,8-5.5,8.6c-0.9,0.1-1.8,0.2-2.7,0.4c-9.8,3.3-19.9,4.1-30.1,3.9c-13.4-0.3-26.9-0.7-40.3-1.3
				c-22.2-0.9-44.3-2.4-66.5-2.8c-23.6-0.4-47.3-0.1-70.9,0.4c-17.4,0.3-34.9,2.1-52.3,2.1c-45.1,0-90.1-0.6-135.2-0.9
				c-1.9,0-3.9,0-6.4,0c0.2,4.2,0,7.8,0.6,11.4c2.4,15.2,4.9,30.5,4.9,46c0,5.2,1.3,10.4,2,15.9c4.3,0.2,8.5,0.6,12.6,0.6
				c15.1-0.3,30.2-0.6,45.2-1.1c21.6-0.7,43.2-1.5,64.8-2.5c11.8-0.5,23.5-1.9,35.4-2.5c23.4-1.2,46.8-2.5,70.3-3
				c42.5-0.8,85.1-0.8,127.6-1.3c19.6-0.2,39.2-0.7,58.9-1.1c4.8-0.1,9.6-0.7,14.2-1c-0.6-3.8-1.6-7-1.5-10.2
				c0.9-27.2,2.1-54.5,3.2-81.7c0.1-1.8,0.2-3.6,0.5-5.4c0.4-2.9,2.2-4.5,5-4.9c1.4-0.2,2.9-0.2,4.4-0.2c21.1-0.2,42.2-0.4,63.3-0.6
				c1.9,0,3.8-0.2,6.1-0.3c0.3-6,0.6-11.4,0.9-16.8c1-16.3,2-32.7,3.1-49c0.3-5.1,1.7-6.5,6.5-7.2c5.7-1,11.5-1.9,17.2-2.6
				c17.8-2.2,35.7-4.4,53.6-6.6c0.8-0.1,1.6-0.6,2.7-1c0-2,0-3.8,0-5.6c0-17.1,0-34.2,0-51.3c0-5.1,1.6-6.8,6.7-7.4
				c0.7-0.1,1.5-0.1,2.2-0.1c10.5,0.1,21.1,0,31.6,0.3C856,505.1,864.9,505.7,874.5,506.2L874.5,506.2z M875.5,747.9
				c0-2.4,0-4.5,0-6.7c-0.1-12.2-0.2-24.4-0.2-36.5c-0.2-61.8-0.5-123.6-0.7-185.4c0-1.9-0.3-3.8-0.4-5.4c-20,0.4-39.2,0.8-58.8,1.2
				c0,2.6-0.1,5.3,0,8c0.4,15.5,0.9,30.9,1.2,46.3c0.1,6.6-1.2,8-7.6,9c-18.5,2.7-37,5.5-55.5,8.1c-5.5,0.8-11,1.5-16.4,2.2
				c-0.2,1.2-0.4,1.7-0.4,2.2c-0.8,16.3-1.5,32.7-2.3,49c-0.3,5.3-0.6,10.5-1.2,15.8c-0.6,5-2.5,6.5-7.5,6.8c-0.9,0-1.8,0-2.7,0
				c-21.3-0.2-42.5-0.5-63.8-0.7c-1.9,0-3.9,0-6.1,0c-0.1,1.6-0.3,2.6-0.3,3.7c-0.1,29.8-0.4,59.5-2.7,89.9
				C724.7,751.3,799.6,748.1,875.5,747.9L875.5,747.9z M86.4,683.8c3.7,0,7.2,0,10.6,0c17.4,0,34.9,0,52.3-0.2
				c11.3-0.1,22.5-0.9,33.8-0.9c17.6,0,35.3,0.6,52.9,0.8c42.4,0.3,84.7,0.5,127,0.7c16.9,0,33.8-0.2,50.7-0.5
				c48.6-0.7,97,1.7,145.5,3.8c11.8,0.5,23.6-0.2,35.4-0.7c3.7-0.2,7.3-1.5,11-2.4c0-2.5,0-4.3,0-6.1c-0.4-18-1.3-36-1.2-53.9
				c0.2-27.6,1.1-55.2,1.8-82.9c0.9-36.3,2-72.7,2.6-109c0.7-44.2,0.9-88.3,1.3-132.5c0-2.4,0.1-4.7,0-7.1c-0.2-3.1-1.5-5.8-4.3-7.1
				c-2.1-1-4.7-1.3-7.1-1.6c-9.2-0.8-18.5-2-27.7-2.1c-19.1-0.3-38.2-0.2-57.2-0.1c-10.7,0.1-21.4,0.8-32.2,0.6
				c-14-0.2-28-0.8-41.9-1.4c-17.6-0.7-35.2-1.4-52.8-2.1c-14.7-0.5-29.4-1.4-44.1-1.3c-23.3,0.2-46.5,1.4-69.8,1.7
				c-30.5,0.5-61.1,0.6-91.6,0.9c-10,0.1-20,0.2-30,0.4c-12.4,0.2-24.7,0.6-37.1,0.6c-8.9,0-17.8-0.5-26.7-0.8
				c-1.9,0-3.9,0.3-5.9,0.5c0,3.1,0,5.6,0,8.1c0.6,50.2,1.1,100.3,1.7,150.5c0.4,38.5,0.8,77.1,1.2,115.6
				c0.4,40.7,0.8,81.4,1.2,122.1C85.9,679.6,86.2,681.3,86.4,683.8L86.4,683.8z M194.8,788.3c6.9,0.3,13.2,0.9,19.5,0.8
				c16.4-0.4,32.7-1.3,49-1.8c14.4-0.4,28.7-0.1,43.1-0.9c35.1-1.9,70.1-1.5,105.2-1.6c46.2-0.2,92.3-0.5,138.5-0.8
				c4.5,0,9.1,0,13.6-0.5c24.3-2.2,48.6-2.9,73-3c34.3-0.1,68.7-0.2,103.1-0.4c18.5-0.1,37.1-0.4,55.6-0.8
				c35.8-0.7,71.6-1.4,107.4-2.2c1.8,0,3.5-0.4,5.7-0.6c0.2-6,0.6-11.6,0.6-17.2c0-14.2-0.1-28.3-0.2-42.5
				c-0.2-21.4-0.5-42.9-0.8-64.3c-0.2-17.1-0.8-34.2-0.8-51.2c0-8.5,1.3-17,1.4-25.6c0.2-42.2,0.5-84.3,0.1-126.5
				c-0.3-32-1.5-64-2.4-95.9c-0.2-7.2-0.6-14.5-0.9-22.1c-7.8-2.2-15.4-4.5-23.7-6.8c0,2.3,0,4,0,5.8c0.4,22.2,0.8,44.4,1.1,66.5
				c1.4,116,2.7,231.9,4,347.9c0,1.8-0.1,3.7-0.6,5.4c-0.8,2.8-2.9,3.9-5.8,3.8c-9.4-0.1-18.8-0.4-28.2-0.1c-20.5,0.7-41,2-61.5,2.4
				c-20.9,0.4-41.8,0.8-62.6,2.3c-35.7,2.5-71.5,4-107.3,5.4c-23.2,0.9-46.5,1.1-69.8,1.4c-32.3,0.3-64.7,0.3-97.1,0.7
				c-13.8,0.2-27.6,0.5-41.4,1.3c-37.4,2.2-74.7,5.1-112.1,7.1c-25,1.3-50.1,1.8-75.2,2.4c-5.8,0.1-11.6-1-17.3-1.8
				c-1.3-0.2-3.1-1.5-3.5-2.7c-2.8-9.4-4.3-19-4.5-28.9c-0.2-12.3-0.8-24.7-1.3-37c-0.2-4-0.7-7.9-1.1-12.1h-9.2
				C190.5,725.5,192.6,756.5,194.8,788.3L194.8,788.3z M818.3,193c-2.2,0-3.7,0-5.1,0c-20.3,0.7-40.7,1.9-61,2.1
				c-18.9,0.2-37.8-0.9-56.7-1.1c-14-0.2-28,0.1-42,0.3c-19.4,0.3-38.9,1-58.3,1.1c-18,0-36-0.8-54-0.9c-32.7-0.1-65.4,0-98.2,0
				c-10.9,0-21.8-0.4-32.7-0.1c-16.5,0.4-33,1.3-49.6,2c-42.7,1.7-85.3,3.3-128,5c-2.2,0.1-4.4,0.3-6.5,0.8
				c-4.6,0.9-6.7,3.5-6.9,8.2c-0.2,4.9-0.2,9.8-0.4,14.7c-0.5,12.5-1.2,25-1.6,37.6c-0.1,3,0.6,5.9,1,8.9h10.1
				c0.3-1.9,0.6-3.5,0.7-5.1c0.9-13.8,1.8-27.5,2.7-41.3c0.1-1.5,0.2-2.9,0.4-4.3c1.1-7.7,3.6-10,11.4-10c0.5,0,1.1,0,1.6,0
				c63.6,0.3,127.2,0.6,190.9,0.9c99.3,0.4,198.5,0.8,297.7,1.4c18.7,0.1,37.4,0.5,56.2,1c9.1,0.2,18-0.7,27.4-1.8
				C817.8,205.8,818,199.6,818.3,193L818.3,193z"/>
			<path d="M643.9,412.2c1.6-31.2,16.5-62.6,49.8-83.8c10.6-6.7,22.2-11,34.6-12.4c6.6-0.8,13.4-0.3,20.1,0.4
				c6.1,0.6,12.1,2.2,18.1,3.3c1.8,0.4,3.7,0.7,4,3c0.3,2.3-1.5,3.2-3.2,3.8c-1.3,0.5-2.7,0.9-4.1,1.1
				c-32.2,4.4-54.2,27.7-60.1,53.5c-6.3,27.6,5.9,55.3,30.8,70.6c13.4,8.2,27.9,11,43.4,9.5c7.4-0.7,8.4-0.1,11.9,6.5
				c1.3,2.5,1.1,4.3-0.5,6.4c-16.4,21.5-52.8,43-91.5,29.4c-20.9-7.3-35.2-21.8-44.4-41.7C646.6,448.5,643.7,434.5,643.9,412.2
				L643.9,412.2z M773.9,476.5c-6.5-0.5-12.5-0.5-18.3-1.4c-20.5-3.2-37.5-12.6-49.7-29.5c-28.2-39.1-16.3-96.4,28.1-118.7
				c1-0.5,1.9-1.2,3.7-2.4c-11.8-0.8-22,1.5-31.7,5.9c-38.5,17.1-62.5,63.9-53.9,105.2c4.5,21.5,15.4,38.8,34.3,50.4
				c29.7,18.3,64.1,10.1,85.7-7.2C772.5,478.1,773,477.4,773.9,476.5L773.9,476.5z"/>
			<path d="M480,714.9c-5.2,0.9-7.5,3.5-9.1,7c-1.4,3-2.5,6-4,9c-1.1,2.3-2.4,4.5-3.9,6.5c-6.9,9.2-20.3,11.3-29.6,4.6
				c-4.8-3.5-7.4-8.3-7.6-14.4c-0.1-3.1-0.1-6.2-0.2-9.3c-0.1-2.5-1.7-3.8-4-3c-2.5,0.9-5.1,2-7.1,3.7c-5,4.2-7.6,10.1-9.4,16.3
				c-0.7,2.4-1.2,4.9-2.1,7.3c-0.3,0.8-1.4,2-2.1,1.9c-0.8,0-2-1.1-2.2-1.9c-0.5-1.9-0.9-4-0.7-5.9c1-8.5,4.3-16,10.2-22.4
				c4.6-5,10.4-7.2,16.9-7.9c5.3-0.5,9.9,2.6,11.4,8.1c0.9,3.3,1.2,6.8,1.4,10.2c0.4,6.3,1.8,8.7,6.4,10.1c5.2,1.6,9.1,0.5,12.3-4.3
				c2.6-3.9,4.6-8.2,6.5-12.5c2.8-6.3,7.4-10.7,13.5-13.5c7.1-3.3,13.7-0.3,15.7,7.3c0.9,3.3,1,6.8,1.2,10.2
				c0.3,5.1,3.4,8.9,8.2,10.1c2,0.5,3.2-0.6,4-2c1.7-2.8,3.2-5.7,4.8-8.5c2.3-4.3,5.2-7.9,9.4-10.3c3.4-2,6.6-2,8.1-0.3
				c1.4,1.7,0.9,5.1-2,7.7c-4.6,4.1-7.5,9.2-10.3,14.6c-6.1,11.6-14.3,13.8-25.7,7.2c-6.3-3.6-9.9-8.9-9.9-16.4
				C480,721.3,480,718.5,480,714.9L480,714.9z"/>
			<path d="M328.8,668.5c-54.7,0.9-108.4,1.7-162,2.6c-18,0.3-36,0.9-54,1.3c-3.3,0.1-6.6,0-9.8-0.3c-3.4-0.2-4-0.9-4.1-4.4
				c-0.2-7.8-0.4-15.6-0.5-23.4c-0.2-24.5-0.1-49.1-0.4-73.6c-0.5-33.4-1.6-66.9-2.1-100.3c-0.3-22.7-0.2-45.4,0-68.1
				c0.2-26,0.7-52,1.1-78c0.1-5.6,0.8-11.2,1-16.8c0.1-2.8,1.6-4,4-4.3c3.9-0.6,7.9-1.2,11.9-1.4c47.6-2.8,95.2-3.9,142.8-3.2
				c41.8,0.6,83.6-0.5,125.4-2.1c25.3-1,50.5-0.1,75.8,1.3c13.8,0.8,27.6,1.4,41.4,1.9c26.7,1.1,53.4,2.1,80.1,3.1
				c1.5,0.1,2.9,0.2,4.3,0.4c5.8,0.7,9.8,4.5,10.7,10.3c0.3,2,0.4,4,0.4,6c0.9,21.6,2.1,43.2,2.6,64.8c0.4,20,0.1,40,0.1,60
				c-0.1,27.6-0.2,55.3-0.3,82.9c-0.1,28.9,0,57.8-0.3,86.7c-0.2,13.4-1.2,26.9-1.8,40.3c-0.4,8.5-6,13.8-14.5,14.4
				c-48.8,3.4-97.7,3.3-146.6,2.5C398.5,670.6,363.1,669.4,328.8,668.5L328.8,668.5z M101.6,489.4c3.2-2.1,5.7-3.9,8.3-5.4
				c8.3-5.1,17.7-6.4,27.1-7.2c3.4-0.3,7-0.2,10.2,0.7c7.5,1.8,14.4,5,20.3,10.1c10.1,8.7,19.2,18.2,26,29.9
				c4.7,8.2,10.1,16,15.2,23.9c7.5,11.8,18.7,15.1,31.7,12.7c6.9-1.2,13.8-3.4,20.4-5.9c24.5-9.3,49.4-15.9,75.8-16.2
				c9.8-0.1,19.6-1.1,29.2,2c9.9,3.2,19.5,7.1,28.2,12.8c15,9.8,27,22.1,32.6,39.6c2.1,6.6,4.5,13.1,6.5,19.7
				c3.9,12.8,4.3,25.8,1.7,38.8c-1.3,6.5-3.9,12.6-6,19.3c3.3,0.2,6.9,0.5,10.5,0.5c25.6,0.1,51.3,0.5,76.9,0.2
				c21.1-0.2,42.1-1.2,63.2-1.8c3.8-0.1,6.2-2.7,9-4.5c1.2-0.8,1-4,1-6.1c0.1-10.2,0.1-20.4,0.2-30.5c0.3-23.6,1.1-47.2,1.1-70.9
				c0.1-35.8-0.6-71.6-0.3-107.4c0.3-39.8-1.1-79.6-2.4-119.4c-0.2-5.6-0.8-11.2-5.6-16c-9.8,0-20.2,0-30.5,0
				c-37.5,0-74.8-1.5-112.2-4c-15.2-1-30.5-1.6-45.8-0.9c-33.4,1.5-66.8,2.8-100.3,2.7c-32.5-0.1-65.1-0.2-97.6,0.1
				c-22.4,0.3-44.7,1.3-67,2.2c-6.7,0.3-13.4,1-20.1,1.7c-6.3,0.7-7.3,2-7.3,8.4c0,16.7,0.1,33.5,0,50.2
				c-0.3,33.2-0.8,66.5-1.1,99.7C100.6,475.2,101.3,482,101.6,489.4L101.6,489.4z M418.2,663.9c1.4-3.1,2.8-5.6,3.8-8.2
				c1.3-3.2,2.8-6.4,3.5-9.7c5.2-26.4-3.2-49.8-16.7-71.9c-1.2-2-3.1-3.6-4.7-5.2c-12.7-13-28.5-20.5-45.7-25.3
				c-2.2-0.6-4.7-1.1-7-1c-14.1,0.5-28.4,0.5-42.4,2.2c-15,1.8-29.4,6.5-43.6,11.6c-7.2,2.6-14.4,5.1-21.9,6.6
				c-16.7,3.5-32.9-0.2-43.4-17.2c-4.7-7.8-9.8-15.3-14.2-23.3c-6-10.9-14-19.9-22.9-28.2c-5.9-5.4-12.9-9.6-20.7-10.2
				c-10.8-0.8-21.9-0.3-31.8,5.3c-3.1,1.7-5.8,4-8.7,6c0.7,56.5,1.6,112.7,4.8,169.4c102.6-1.1,204.9-3.3,307.1-0.8
				C415.4,664,417,663.9,418.2,663.9L418.2,663.9z"/>
			<path d="M497.8,468.1c-23.8,0-45.2-15.4-52.6-37.8c-7.4-22.2,0.9-48,20.1-62.2c10-7.5,21.3-11.7,33.9-11.9c1.3,0,2.8,0.2,3.7-0.4
				c3.5-2.4,7-1.4,10.5-0.7c30.8,6.8,49.4,38.6,40.9,69.7C547.3,450.2,524,468.1,497.8,468.1L497.8,468.1z M499.5,456.1
				c18.2-1,33.6-9.8,43.1-27.7c7.1-13.4,7-27.3,0-40.8c-6.4-12.2-17.1-18.9-30.3-21.8c-2.5-0.5-5.3-0.4-7.4-1.7
				c-2.8-1.7-5.5-1.8-8.3-1.3c-17.5,2.8-30.7,11.9-38.9,27.6C441.5,421.4,462.9,456.3,499.5,456.1L499.5,456.1z"/>
			<path d="M300.2,391.4c-0.6,0.8-1.2,2.2-2.1,3.2c-18.9,20.8-37.9,41.7-56.9,62.4c-1.6,1.7-3.5,3.2-5.3,4.6
				c-2.2,1.8-3.6,1.6-5.6-0.5c-0.5-0.5-0.9-1.1-1.3-1.8c-7.7-12.7-15.5-25.4-23-38.2c-3-5-2.4-6.4,3.2-8.2c23-7.4,46-14.6,69-21.8
				c4.5-1.4,9-2.7,13.6-3.8c1.5-0.4,3.2-0.7,4.8-0.5C298.9,387,300,388.6,300.2,391.4L300.2,391.4z M281.7,401.1
				c-0.2-0.3-0.4-0.6-0.6-0.8c-22.8,6.1-45.7,12.3-69.2,18.6c7.6,11.8,14.8,23,22.2,34.6C250.2,435.7,265.9,418.4,281.7,401.1z"/>
		</g>
	</g>
</g>
</svg>
