<svg width="180" height="174" viewBox="0 0 180 174" fill="none" xmlns="http://www.w3.org/2000/svg">
<path d="M11.0272 74.585C11.6118 74.8518 12.1566 75.195 12.6618 75.6148C13.1511 76.0329 13.5672 76.5403 13.9101 77.1369C14.2547 77.7176 14.5102 78.386 14.6766 79.142C14.8287 79.8806 14.8599 80.7036 14.7702 81.6112C14.6963 82.3596 14.5172 83.0332 14.2329 83.6322C13.9342 84.2136 13.5487 84.698 13.0763 85.0854C12.6039 85.4729 12.0534 85.7561 11.4247 85.9351C10.7961 86.1142 10.1076 86.1667 9.35922 86.0927C8.32426 85.9904 7.36234 85.7185 6.47346 85.2769C5.58616 84.8194 4.83243 84.2305 4.21229 83.51C3.57623 82.7879 3.1048 81.9455 2.79802 80.9826C2.49123 80.0198 2.3937 78.9731 2.50544 77.8426C2.57783 77.1102 2.74663 76.4596 3.01185 75.891C3.27707 75.3223 3.62121 74.8498 4.04426 74.4736C4.45139 74.0958 4.92869 73.8215 5.47616 73.6505C6.00771 73.4779 6.58398 73.4223 7.20495 73.4837C7.2368 73.4868 7.2766 73.4908 7.32437 73.4955C7.35621 73.4987 7.43504 73.5145 7.56085 73.543L7.6586 75.482C7.56464 75.4566 7.49378 75.4416 7.44601 75.4369C7.39824 75.4322 7.34252 75.4267 7.27883 75.4204C6.89669 75.3826 6.5401 75.4117 6.20906 75.5076C5.86368 75.586 5.55819 75.7487 5.2926 75.9958C5.01266 76.2254 4.78058 76.5401 4.59636 76.9399C4.41372 77.3238 4.29486 77.7944 4.23978 78.3517C4.16581 79.1 4.24862 79.8076 4.4882 80.4744C4.72935 81.1253 5.08904 81.7155 5.56727 82.2451C6.03115 82.7572 6.59204 83.1824 7.24996 83.5208C7.90944 83.8432 8.61336 84.0414 9.36171 84.1154C10.4922 84.2271 11.366 84.008 11.9831 83.458C12.5842 82.9065 12.9368 82.1053 13.0406 81.0544C13.1036 80.4175 13.0719 79.8436 12.9455 79.3327C12.8032 78.8202 12.6069 78.3667 12.3565 77.9722C12.0901 77.576 11.7777 77.2397 11.4192 76.9631C11.0606 76.6865 10.6807 76.464 10.2793 76.2957L11.0272 74.585Z" fill="black"/>
<path d="M13.4635 55.6553C13.2712 55.5308 13.1031 55.4327 12.9592 55.3609C12.806 55.2685 12.6472 55.191 12.4827 55.1285C11.7049 54.833 11.0634 54.8545 10.5582 55.1932C10.0587 55.5168 9.68101 56.0152 9.42527 56.6882C9.03881 57.7053 9.08414 58.6896 9.56127 59.6411C10.0291 60.572 10.8205 61.3947 11.9354 62.1093L17.2547 65.5427L16.5983 67.2702L1.87552 57.7733L2.51489 56.0907L8.5544 59.926L8.6567 59.6568C8.09582 59.0158 7.77948 58.3393 7.70767 57.6274C7.62091 56.9098 7.71962 56.177 8.00378 55.4292C8.37887 54.4421 9.0027 53.7463 9.87526 53.3418C10.7385 52.9168 11.7311 52.9174 12.8528 53.3436C13.3314 53.5255 13.7901 53.7597 14.229 54.0462L18.5428 56.8151C18.7501 56.9452 18.8992 56.8906 18.9901 56.6513C19.0242 56.5615 19.0209 56.4576 18.9802 56.3394L18.6845 55.2258L20.3662 54.7865L20.7145 56.0998C20.8452 56.6116 20.8139 57.1218 20.6207 57.6303C20.4445 58.094 20.1536 58.4541 19.748 58.7108C19.3481 58.9525 18.8639 58.9654 18.2956 58.7494C18.1311 58.6869 17.9451 58.5906 17.7378 58.4605L13.4635 55.6553Z" fill="black"/>
<path d="M27.3008 41.8571C27.6958 42.7566 27.8208 43.5787 27.6757 44.3235C27.5271 45.0459 27.2319 45.7115 26.7903 46.3201C26.4144 46.8381 25.9854 47.2385 25.5034 47.5213C25.0085 47.7948 24.4893 47.9518 23.9459 47.9923C23.4024 48.0329 22.8412 47.9617 22.2623 47.7788C21.6704 47.5865 21.0895 47.2836 20.5198 46.8702C19.7039 46.2781 18.9986 45.5884 18.4037 44.8008C17.8088 44.0133 17.3798 43.188 17.1165 42.3248C16.8627 41.4487 16.8006 40.5536 16.9302 39.6394C17.0469 38.7159 17.42 37.8203 18.0496 36.9526C18.5289 36.2922 19.093 35.8417 19.7421 35.601C20.3783 35.351 21.0394 35.3661 21.7255 35.6466L21.8946 35.4135L20.6051 34.0032L21.7045 32.4881L28.467 40.0049C28.5647 40.1154 28.6648 40.1682 28.7671 40.1634C28.8565 40.1492 28.9341 40.0968 28.9999 40.0061C29.0657 39.9155 29.0991 39.8013 29.1001 39.6637L29.1025 38.5979L30.8406 38.6137L30.8667 39.9671C30.8669 40.1847 30.8195 40.4271 30.7245 40.6942C30.6389 40.9484 30.5162 41.1856 30.3565 41.4057C30.2155 41.6 30.0534 41.7689 29.87 41.9126C29.6867 42.0563 29.4868 42.1683 29.2704 42.2485C29.0505 42.3064 28.8235 42.3196 28.5894 42.2881C28.3423 42.2471 28.0893 42.1327 27.8303 41.9448C27.7655 41.8978 27.7008 41.8508 27.636 41.8038C27.5807 41.7439 27.5253 41.684 27.47 41.624L27.3008 41.8571ZM25.6912 44.8108C26.067 44.2928 26.3029 43.7227 26.3987 43.1003C26.491 42.4555 26.452 41.8145 26.282 41.1771C26.1213 40.5267 25.833 39.9024 25.4172 39.3041C24.9883 38.6963 24.4437 38.1529 23.7833 37.6736C22.9804 37.091 22.2078 36.8071 21.4656 36.822C20.7104 36.8275 20.0556 37.2123 19.5011 37.9763C19.0595 38.5849 18.799 39.2163 18.7197 39.8704C18.6498 40.5116 18.7175 41.1538 18.9228 41.7971C19.1152 42.4309 19.4353 43.0388 19.8829 43.6206C20.3399 44.1895 20.8727 44.6947 21.4814 45.1364C22.336 45.7566 23.1198 46.0387 23.8326 45.9827C24.5454 45.9266 25.1649 45.536 25.6912 44.8108Z" fill="black"/>
<path d="M33.3519 23.6411C33.2688 23.4614 33.1597 23.3644 33.0247 23.3499C32.8797 23.3229 32.7511 23.3547 32.639 23.445C32.5394 23.5254 32.4711 23.6318 32.4341 23.7644L31.6675 26.2935L30.0315 25.7935L30.7908 23.3319C30.9833 22.704 31.2976 22.2143 31.7336 21.8629C32.1198 21.5516 32.5465 21.3926 33.0137 21.3859C33.471 21.3667 33.914 21.585 34.343 22.0407L34.5673 21.8599C34.5168 21.058 34.6355 20.3766 34.9233 19.8158C35.201 19.2426 35.5828 18.7602 36.0686 18.3685C36.9655 17.6456 37.8802 17.3399 38.8127 17.4514C39.7351 17.5504 40.5377 18.0235 41.2205 18.8705C41.4816 19.1944 41.7103 19.5546 41.9067 19.9512L40.4088 21.3436C40.22 20.982 40.0403 20.6953 39.8696 20.4835C39.3876 19.8856 38.863 19.5789 38.2957 19.5635C37.7409 19.5381 37.2019 19.7362 36.6787 20.1579C36.305 20.4592 36.0227 20.81 35.8317 21.2106C35.6432 21.5886 35.5373 21.9925 35.5139 22.4224C35.4804 22.8398 35.5133 23.2757 35.6124 23.7302C35.724 24.1745 35.883 24.6012 36.0894 25.0103L38.5549 29.8663L40.7598 28.089L41.8442 29.4344L35.9023 34.224L34.8178 32.8787L37.0975 31.0411L33.3519 23.6411Z" fill="black"/>
<path d="M59.514 17.0722L59.2503 17.188C59.0957 17.9898 58.7636 18.6861 58.2542 19.2769C57.7594 19.8611 57.1311 20.3206 56.3693 20.6551C55.7394 20.9318 55.1157 21.0834 54.4982 21.1099C53.889 21.1153 53.3176 21.008 52.7841 20.788C52.2506 20.5679 51.7623 20.2319 51.3191 19.78C50.8906 19.3216 50.5316 18.7628 50.2421 18.1035C49.7982 17.0927 49.5329 16.0908 49.4463 15.0978C49.3743 14.0984 49.4711 13.1647 49.7364 12.2967C50.01 11.4077 50.4473 10.6127 51.0482 9.91196C51.6638 9.20473 52.4331 8.64845 53.356 8.24313C54.2203 7.86354 55.0144 7.74194 55.7384 7.87835C56.4706 7.99367 57.0564 8.31304 57.496 8.83647L57.7597 8.72066L57.3805 6.84261L59.0945 6.08986L62.18 20.9341C62.2815 21.4837 62.2126 22.0033 61.9733 22.4928C61.7339 22.9824 61.3652 23.3365 60.8671 23.5553L54.2309 26.4698L53.5361 24.8876L59.8866 22.0986C60.2968 21.9185 60.4493 21.5893 60.3442 21.1113L59.514 17.0722ZM56.0287 18.865C56.7026 18.569 57.2535 18.1523 57.6815 17.6148C58.1031 17.0627 58.4055 16.4581 58.5887 15.8009C58.7802 15.1227 58.8474 14.4204 58.7905 13.6939C58.7336 12.9675 58.5636 12.282 58.2805 11.6374C57.8816 10.7292 57.3036 10.1093 56.5464 9.77778C55.7891 9.44628 54.9784 9.47033 54.1141 9.84992C53.4255 10.1523 52.8673 10.5722 52.4393 11.1097C52.0113 11.6472 51.7089 12.2518 51.5321 12.9236C51.3635 13.5743 51.3109 14.2702 51.3742 15.0113C51.4522 15.7459 51.6424 16.4575 51.9448 17.1461C52.3437 18.0543 52.8933 18.6692 53.5937 18.9907C54.3088 19.3058 55.1204 19.2639 56.0287 18.865Z" fill="black"/>
<path d="M71.5195 9.39755C71.5069 9.52888 71.5045 9.67485 71.5125 9.83545C71.5205 9.99605 71.5375 10.1634 71.5637 10.3374C71.6945 11.2076 72.0559 11.8895 72.6478 12.383C73.2374 12.8607 74.0859 13.0163 75.1935 12.8498C75.7473 12.7665 76.2282 12.6295 76.6364 12.4387C77.0604 12.2455 77.414 12.0144 77.6971 11.7453C77.9779 11.4604 78.2076 11.1589 78.3863 10.8408C78.5785 10.5045 78.7287 10.1584 78.837 9.8023L80.4843 10.4284C80.3318 10.9205 80.1203 11.3972 79.8499 11.8586C79.5771 12.3041 79.2338 12.7116 78.8202 13.0812C78.4065 13.4508 77.9122 13.7678 77.3371 14.0323C76.762 14.2967 76.0868 14.4872 75.3115 14.6037C74.5995 14.7107 73.9262 14.6987 73.2917 14.5675C72.6754 14.4499 72.1239 14.2253 71.6372 13.894C71.1482 13.5468 70.741 13.0984 70.4156 12.5486C70.0903 11.9989 69.8717 11.3522 69.76 10.6086C69.6101 9.61176 69.6245 8.63073 69.8029 7.66547C69.9791 6.68439 70.3142 5.79266 70.8085 4.99028C71.3027 4.1879 71.9607 3.50651 72.7825 2.94612C73.602 2.36991 74.5734 1.99737 75.6968 1.8285C76.4879 1.70958 77.1952 1.7327 77.8186 1.89785C78.4397 2.04718 78.9723 2.30691 79.4162 2.67703C79.8578 3.03133 80.2139 3.46318 80.4847 3.9726C80.753 4.46619 80.93 4.99779 81.0156 5.56739C81.0799 5.99459 81.0942 6.4131 81.0588 6.82293L80.9654 7.97764L71.5195 9.39755ZM75.7234 3.62045C75.1697 3.70369 74.6606 3.8692 74.1963 4.11698C73.7454 4.34655 73.3448 4.64138 72.9944 5.00146C72.644 5.36154 72.3574 5.76868 72.1344 6.22287C71.9091 6.66124 71.753 7.12965 71.6661 7.6281L79.2133 6.4936C79.2227 6.23331 79.2108 5.99241 79.1775 5.77089C79.049 4.91649 78.6588 4.31178 78.0068 3.95676C77.3548 3.60174 76.5937 3.48963 75.7234 3.62045Z" fill="black"/>
<path d="M101.467 5.2529C101.492 5.17528 101.509 5.10467 101.516 5.0411C101.539 4.97937 101.555 4.90877 101.565 4.8293C101.601 4.51143 101.544 4.23905 101.394 4.01217C101.243 3.78528 100.984 3.65065 100.619 3.60828C100.158 3.55484 99.774 3.6714 99.467 3.95795C99.1758 4.24634 98.9335 4.66925 98.7401 5.22668L95.9094 13.5964L94.0499 13.3808L96.9614 4.73055C97.0116 4.5753 97.0468 4.41026 97.0671 4.23543C97.1002 3.94935 97.0484 3.70173 96.9116 3.49259C96.7925 3.26939 96.5343 3.13476 96.1369 3.08869C95.6283 3.02973 95.2257 3.16829 94.929 3.50436C94.6324 3.84043 94.4008 4.24043 94.2342 4.70434L91.4036 13.074L89.5679 12.8612L93.4419 1.32663L95.3015 1.5422L94.9708 2.51862L95.2569 2.55178C95.4852 2.11114 95.7941 1.80869 96.1836 1.64446C96.5749 1.46432 96.9931 1.40005 97.4381 1.45164C97.9308 1.50876 98.3143 1.67402 98.5887 1.94743C98.8789 2.22269 99.0398 2.57154 99.0714 2.99398L99.3575 3.02715C99.6297 2.62381 99.9536 2.33116 100.329 2.14919C100.706 1.95132 101.149 1.88186 101.658 1.94082C102.373 2.02373 102.889 2.30094 103.204 2.77245C103.522 3.22806 103.641 3.79757 103.562 4.481C103.545 4.62404 103.519 4.78205 103.483 4.95504C103.449 5.11213 103.408 5.25241 103.362 5.37587L101.012 12.3034C100.966 12.4269 100.971 12.5241 101.027 12.595C101.083 12.666 101.159 12.707 101.254 12.718C101.349 12.7291 101.441 12.7074 101.527 12.6531L102.614 12.0301L103.453 13.5527L102.286 14.239C102.096 14.3458 101.862 14.4233 101.582 14.4715C101.319 14.5215 101.052 14.5308 100.782 14.4995C100.543 14.4719 100.317 14.4133 100.102 14.324C99.8864 14.2346 99.6908 14.1153 99.5148 13.966C99.3566 13.8027 99.2338 13.6113 99.1465 13.3918C99.061 13.1564 99.0367 12.8798 99.0736 12.5619C99.0828 12.4824 99.092 12.403 99.1012 12.3235C99.1263 12.2459 99.1514 12.1682 99.1765 12.0906L101.467 5.2529Z" fill="black"/>
<path d="M112.939 11.6653C112.862 11.7723 112.786 11.8972 112.712 12.0398C112.638 12.1824 112.568 12.3355 112.503 12.4989C112.176 13.3162 112.144 14.0872 112.406 14.812C112.674 15.522 113.328 16.0847 114.368 16.5002C114.888 16.7079 115.372 16.8324 115.821 16.8738C116.284 16.9211 116.706 16.9001 117.086 16.8108C117.473 16.7066 117.823 16.5624 118.138 16.378C118.474 16.1847 118.778 15.9617 119.051 15.7091L120.157 17.0812C119.777 17.429 119.354 17.7338 118.887 17.9954C118.427 18.2423 117.925 18.4208 117.381 18.531C116.838 18.6411 116.251 18.6652 115.621 18.6031C114.991 18.541 114.312 18.3646 113.584 18.0737C112.915 17.8067 112.34 17.4563 111.859 17.0228C111.386 16.61 111.024 16.1378 110.771 15.6061C110.524 15.0595 110.399 14.4668 110.396 13.828C110.392 13.1893 110.53 12.5207 110.809 11.8223C111.183 10.8862 111.691 10.0467 112.332 9.30358C112.979 8.54563 113.719 7.94511 114.551 7.50201C115.382 7.05891 116.294 6.80296 117.287 6.73415C118.285 6.65048 119.311 6.81934 120.366 7.24073C121.109 7.53749 121.708 7.91454 122.163 8.37187C122.624 8.81435 122.952 9.3074 123.149 9.85102C123.351 10.3798 123.44 10.9324 123.417 11.5088C123.399 12.0703 123.284 12.6186 123.07 13.1535C122.91 13.5546 122.711 13.9232 122.473 14.259L121.81 15.2086L112.939 11.6653ZM119.485 8.801C118.965 8.59327 118.442 8.47913 117.916 8.45858C117.411 8.42912 116.916 8.48135 116.432 8.61528C115.948 8.74921 115.495 8.95592 115.073 9.23541C114.657 9.50004 114.286 9.82556 113.959 10.212L121.047 13.043C121.186 12.8231 121.297 12.6091 121.381 12.4011C121.701 11.5987 121.67 10.8797 121.286 10.2441C120.902 9.60847 120.302 9.12743 119.485 8.801Z" fill="black"/>
<path d="M138.607 23.7184C138.78 23.5682 138.916 23.4403 139.015 23.3348C139.124 23.2165 139.227 23.0935 139.323 22.9656C139.784 22.3517 139.94 21.7583 139.79 21.1853C139.663 20.6092 139.273 20.0759 138.621 19.5856C137.751 18.9318 136.806 18.7115 135.785 18.9247C134.774 19.1252 133.805 19.6281 132.879 20.4334L127.998 24.6902L126.501 23.5653L135.688 15.579L137.184 16.7039L135.858 17.8688L136.088 18.0419C136.841 17.7067 137.569 17.6036 138.273 17.7324C138.999 17.858 139.65 18.1371 140.225 18.5698C140.635 18.8775 140.972 19.241 141.237 19.6606C141.512 20.0673 141.687 20.4995 141.763 20.9572C141.853 21.4245 141.834 21.9012 141.709 22.3875C141.596 22.8834 141.357 23.3743 140.992 23.8603C140.752 24.18 140.459 24.4901 140.113 24.7905L135.99 28.357C135.888 28.4401 135.843 28.5264 135.855 28.616C135.868 28.7056 135.913 28.7793 135.99 28.837C136.066 28.8947 136.156 28.922 136.258 28.9189L137.511 28.9299L137.466 30.6675L136.3 30.6613C135.695 30.667 135.156 30.492 134.683 30.1363C134.491 29.9921 134.325 29.8271 134.184 29.6413C134.034 29.4683 133.927 29.2778 133.863 29.0697C133.809 28.8489 133.804 28.6153 133.849 28.3689C133.894 28.1226 134.018 27.8651 134.22 27.5965C134.345 27.4303 134.524 27.2449 134.758 27.0404L138.607 23.7184Z" fill="black"/>
<path d="M152.3 30.0128L154.836 33.2699L159.643 30.9269L160.793 32.404L155.986 34.747L158.581 38.08L157.218 39.1415L154.387 35.5056L146.958 39.1298C146.777 39.2099 146.667 39.3159 146.628 39.4478C146.599 39.5923 146.628 39.7214 146.717 39.8351C146.786 39.9234 146.891 39.9935 147.033 40.0454L150.698 41.2371L150.17 42.8645L146.505 41.6728C145.925 41.4752 145.468 41.1618 145.134 40.7325C144.79 40.2907 144.628 39.8087 144.647 39.2867C144.667 38.7647 144.941 38.2972 145.472 37.8844C145.56 37.8156 145.653 37.7531 145.752 37.6969C145.862 37.6309 145.978 37.5712 146.099 37.5178L153.237 34.0285L150.937 31.0743L152.3 30.0128Z" fill="black"/>
<path d="M163.159 77.8958C162.251 77.5001 161.592 76.9745 161.182 76.3188C160.787 75.6611 160.539 74.9436 160.435 74.1665C160.351 73.5321 160.385 72.9384 160.537 72.3855C160.689 71.8325 160.94 71.3473 161.288 70.9298C161.651 70.5101 162.105 70.1592 162.649 69.877C163.208 69.5927 163.837 69.4041 164.534 69.3113C165.518 69.1804 166.497 69.2034 167.473 69.3802C168.449 69.557 169.34 69.8823 170.145 70.3562C170.951 70.8301 171.631 71.4498 172.184 72.2155C172.74 72.9969 173.09 73.9269 173.234 75.0054C173.346 75.846 173.264 76.5671 172.989 77.1686C172.716 77.786 172.213 78.2485 171.479 78.556L171.517 78.8415L178.755 79.3793L179.002 81.2349L163.59 80.0417C163.298 80.0321 163.169 80.1542 163.203 80.4079C163.215 80.5031 163.269 80.6009 163.363 80.7014L164.095 81.4755L162.828 82.6853L161.877 81.7224C161.726 81.5648 161.595 81.3644 161.482 81.1212C161.371 80.8939 161.295 80.6295 161.255 80.3282C161.224 80.0903 161.225 79.8561 161.259 79.6256C161.292 79.3951 161.36 79.1763 161.462 78.969C161.581 78.7756 161.737 78.6096 161.928 78.4712C162.135 78.3306 162.398 78.2392 162.715 78.197C162.794 78.1864 162.873 78.1759 162.953 78.1653C163.034 78.1706 163.115 78.1759 163.197 78.1812L163.159 77.8958ZM162.272 74.5032C162.356 75.1376 162.579 75.7213 162.94 76.2542C163.32 76.801 163.792 77.2547 164.356 77.6153C164.923 77.9919 165.564 78.2617 166.28 78.4247C167.012 78.5855 167.782 78.6122 168.591 78.5045C169.574 78.3736 170.326 78.0233 170.848 77.4536C171.385 76.8817 171.591 76.1279 171.467 75.1921C171.368 74.4467 171.112 73.8027 170.701 73.2602C170.308 72.7315 169.814 72.2968 169.22 71.9562C168.642 71.6135 167.989 71.3776 167.262 71.2484C166.537 71.1351 165.801 71.128 165.056 71.2272C162.946 71.508 162.018 72.5999 162.272 74.5032Z" fill="black"/>
<path d="M167.145 92.6329C167.023 92.5843 166.883 92.5415 166.726 92.5045C166.57 92.4675 166.405 92.4374 166.23 92.4142C165.358 92.2981 164.602 92.4559 163.964 92.8874C163.341 93.321 162.956 94.093 162.808 95.2032C162.734 95.7583 162.732 96.2584 162.802 96.7035C162.87 97.1645 162.994 97.5683 163.174 97.9151C163.369 98.264 163.595 98.5684 163.851 98.8284C164.121 99.1065 164.412 99.3469 164.724 99.5499L163.664 100.958C163.234 100.675 162.835 100.34 162.467 99.9517C162.115 99.5658 161.818 99.1229 161.578 98.6228C161.338 98.1228 161.171 97.5598 161.077 96.9339C160.983 96.308 160.987 95.6065 161.091 94.8293C161.186 94.1156 161.384 93.4722 161.686 92.8991C161.971 92.3397 162.34 91.8722 162.793 91.4968C163.262 91.1234 163.806 90.8569 164.425 90.6971C165.043 90.5373 165.725 90.507 166.471 90.6062C167.47 90.7391 168.408 91.0254 169.286 91.4651C170.179 91.9068 170.943 92.4765 171.577 93.1742C172.21 93.8719 172.682 94.6933 172.992 95.6384C173.318 96.5857 173.406 97.6224 173.256 98.7484C173.15 99.5415 172.932 100.214 172.6 100.768C172.284 101.323 171.886 101.762 171.407 102.086C170.944 102.412 170.431 102.634 169.866 102.752C169.317 102.873 168.757 102.895 168.186 102.819C167.758 102.762 167.352 102.66 166.968 102.512L165.885 102.101L167.145 92.6329ZM171.527 98.2762C171.601 97.7211 171.583 97.1861 171.474 96.6713C171.379 96.1744 171.207 95.7076 170.959 95.271C170.71 94.8344 170.398 94.4459 170.024 94.1055C169.666 93.7673 169.259 93.4872 168.804 93.2653L167.797 100.831C168.045 100.912 168.28 100.967 168.502 100.997C169.358 101.111 170.047 100.904 170.57 100.376C171.092 99.8486 171.411 99.1486 171.527 98.2762Z" fill="black"/>
<path d="M158.015 141.178C158.137 141.334 158.265 141.404 158.4 141.387C158.537 141.393 158.655 141.332 158.753 141.206C158.822 141.118 158.864 140.998 158.88 140.848L159.09 137.453L160.797 137.565L160.572 140.98C160.554 141.29 160.493 141.577 160.389 141.84C160.285 142.104 160.149 142.343 159.982 142.558C159.658 142.975 159.246 143.242 158.748 143.361C158.24 143.493 157.721 143.353 157.191 142.94C156.976 142.773 156.794 142.59 156.644 142.392L148.713 132.537C148.591 132.381 148.461 132.301 148.324 132.295C148.176 132.302 148.058 132.362 147.97 132.476C147.901 132.564 147.859 132.683 147.843 132.833L147.625 136.161L145.918 136.049L146.136 132.721C146.186 132.111 146.383 131.584 146.727 131.143C147.051 130.726 147.467 130.452 147.975 130.32C148.473 130.201 148.988 130.348 149.518 130.761C149.733 130.928 149.915 131.111 150.065 131.308L158.015 141.178Z" fill="black"/>
<path d="M132.844 147.929C132.731 146.953 132.853 146.13 133.211 145.461C133.565 144.814 134.043 144.265 134.644 143.813C135.156 143.428 135.683 143.172 136.227 143.043C136.781 142.927 137.323 142.93 137.855 143.051C138.386 143.172 138.901 143.405 139.401 143.75C139.91 144.108 140.376 144.568 140.799 145.131C141.405 145.936 141.876 146.803 142.213 147.731C142.551 148.658 142.718 149.573 142.716 150.476C142.701 151.388 142.497 152.262 142.104 153.097C141.721 153.946 141.101 154.692 140.245 155.336C139.592 155.827 138.921 156.091 138.229 156.13C137.548 156.182 136.92 155.974 136.347 155.504L136.117 155.677L136.935 157.404L135.439 158.529L131.185 149.356C131.124 149.222 131.044 149.142 130.945 149.116C130.855 149.104 130.765 149.131 130.676 149.198C130.586 149.266 130.521 149.365 130.479 149.496L130.164 150.514L128.507 149.988L128.88 148.687C128.944 148.479 129.06 148.261 129.23 148.034C129.386 147.816 129.573 147.625 129.791 147.462C129.983 147.317 130.187 147.204 130.405 147.12C130.622 147.037 130.846 146.989 131.077 146.975C131.304 146.985 131.525 147.039 131.739 147.138C131.963 147.25 132.172 147.433 132.364 147.689C132.412 147.753 132.46 147.817 132.508 147.881C132.543 147.955 132.579 148.028 132.614 148.102L132.844 147.929ZM135.251 145.579C134.739 145.963 134.346 146.439 134.072 147.006C133.794 147.595 133.643 148.219 133.618 148.878C133.58 149.547 133.672 150.228 133.894 150.923C134.125 151.63 134.486 152.309 134.976 152.961C135.572 153.754 136.227 154.253 136.941 154.457C137.665 154.674 138.404 154.498 139.158 153.931C139.759 153.479 140.194 152.952 140.462 152.35C140.717 151.758 140.841 151.124 140.834 150.449C140.837 149.787 140.709 149.112 140.453 148.424C140.183 147.746 139.822 147.106 139.37 146.505C138.736 145.661 138.07 145.161 137.372 145.005C136.674 144.849 135.967 145.04 135.251 145.579Z" fill="black"/>
<path d="M101.603 154.832L103.439 154.619L102.032 169.786C102.02 169.964 102.05 170.082 102.121 170.138C102.194 170.21 102.294 170.239 102.421 170.224C102.5 170.215 102.569 170.183 102.627 170.128L103.833 169.07L104.95 170.366L103.918 171.259C103.508 171.612 103.041 171.819 102.516 171.88C101.88 171.954 101.359 171.837 100.953 171.53C100.531 171.224 100.282 170.738 100.204 170.07L100.188 169.927L99.9016 169.96C99.5077 170.731 98.9982 171.338 98.3731 171.78C97.7339 172.241 96.9454 172.526 96.0077 172.635C95.356 172.71 94.7462 172.66 94.1782 172.484C93.5961 172.326 93.0904 172.063 92.6611 171.694C92.2177 171.342 91.8515 170.894 91.5627 170.347C91.2757 169.817 91.0944 169.226 91.0189 168.574C90.8973 167.525 90.9243 166.507 91.0998 165.52C91.2594 164.535 91.575 163.645 92.0465 162.85C92.5181 162.054 93.1422 161.394 93.9189 160.869C94.6956 160.344 95.6402 160.017 96.7528 159.888C97.6428 159.785 98.4367 159.894 99.1344 160.216C99.818 160.555 100.331 161.019 100.673 161.608L100.959 161.575L101.603 154.832ZM97.1957 161.625C96.4169 161.715 95.744 161.954 95.1769 162.342C94.5939 162.731 94.1262 163.213 93.7737 163.785C93.4073 164.375 93.1612 165.032 93.0357 165.755C92.8942 166.48 92.8668 167.216 92.9534 167.963C93.075 169.012 93.4453 169.775 94.0642 170.251C94.6672 170.728 95.4217 170.915 96.3276 170.81C97.0588 170.725 97.7069 170.481 98.2722 170.077C98.8216 169.675 99.2795 169.179 99.646 168.589C100.012 167.999 100.275 167.348 100.434 166.637C100.594 165.926 100.632 165.213 100.549 164.497C100.431 163.48 100.077 162.716 99.4858 162.205C98.8968 161.709 98.1334 161.516 97.1957 161.625Z" fill="black"/>
<path d="M75.9801 161.65C76.5966 160.885 77.2689 160.396 77.9968 160.181C78.7065 159.981 79.4332 159.936 80.1769 160.048C80.8097 160.143 81.3627 160.34 81.8357 160.637C82.3063 160.951 82.6848 161.339 82.971 161.803C83.2573 162.267 83.4525 162.798 83.5568 163.396C83.6586 164.01 83.6573 164.665 83.5526 165.361C83.4028 166.358 83.1153 167.301 82.6902 168.192C82.265 169.083 81.73 169.844 81.085 170.475C80.4242 171.104 79.6582 171.571 78.787 171.877C77.9135 172.199 76.9467 172.28 75.8866 172.12C75.0797 171.999 74.42 171.706 73.9074 171.24C73.3925 170.791 73.1016 170.197 73.0346 169.459L72.7498 169.416L72.0918 171.21L70.2406 170.932L73.799 161.468C73.852 161.33 73.8528 161.217 73.8014 161.128C73.7477 161.056 73.6654 161.011 73.5546 160.994C73.4439 160.977 73.3272 161 73.2045 161.063L72.2574 161.551L71.4711 160.001L72.6604 159.355C72.8534 159.255 73.0904 159.185 73.3713 159.146C73.6363 159.105 73.9033 159.105 74.1723 159.145C74.4096 159.181 74.6343 159.247 74.8463 159.344C75.0583 159.44 75.2497 159.566 75.4206 159.721C75.5732 159.89 75.6894 160.085 75.7693 160.308C75.8467 160.546 75.8617 160.823 75.8141 161.14C75.8022 161.219 75.7903 161.298 75.7784 161.377C75.7507 161.454 75.723 161.53 75.6953 161.607L75.9801 161.65ZM79.3432 161.719C78.7104 161.624 78.0956 161.677 77.499 161.878C76.8842 162.093 76.3331 162.423 75.8456 162.868C75.3423 163.31 74.9208 163.853 74.5812 164.498C74.2393 165.158 74.0076 165.892 73.8863 166.699C73.7389 167.68 73.8426 168.496 74.1977 169.148C74.5503 169.816 75.1934 170.22 76.1269 170.361C76.8705 170.472 77.5509 170.413 78.1681 170.182C78.7695 169.949 79.3083 169.593 79.7848 169.114C80.2588 168.652 80.651 168.088 80.9613 167.423C81.2559 166.755 81.459 166.049 81.5708 165.306C81.7278 164.261 81.6173 163.436 81.2393 162.829C80.8613 162.222 80.2293 161.852 79.3432 161.719Z" fill="black"/>
<path d="M55.8882 155.256L56.1519 155.372C56.847 154.943 57.5844 154.716 58.364 154.692C59.1291 154.661 59.8925 154.813 60.6543 155.147C61.2842 155.424 61.8178 155.78 62.2551 156.217C62.6713 156.662 62.9789 157.155 63.1779 157.697C63.3768 158.239 63.4598 158.826 63.4269 159.458C63.3793 160.084 63.2107 160.726 62.9212 161.385C62.4773 162.396 61.919 163.269 61.2464 164.005C60.5592 164.734 59.8063 165.295 58.9876 165.687C58.1478 166.087 57.2666 166.303 56.344 166.334C55.4067 166.359 54.4766 166.169 53.5537 165.764C52.6894 165.385 52.0625 164.882 51.6731 164.257C51.2627 163.64 51.1014 162.992 51.1894 162.314L50.9257 162.198L49.7994 163.748L48.0854 162.996L56.9281 150.68C57.2641 150.233 57.6932 149.932 58.2157 149.777C58.7381 149.622 59.2484 149.654 59.7464 149.873L66.3826 152.787L65.6878 154.37L59.3373 151.581C58.9271 151.4 58.5815 151.511 58.3006 151.912L55.8882 155.256ZM59.5665 156.609C58.8927 156.313 58.2131 156.189 57.5277 156.238C56.8359 156.301 56.1861 156.488 55.5782 156.797C54.9493 157.115 54.3866 157.541 53.8903 158.074C53.3939 158.608 53.0041 159.197 52.721 159.841C52.3221 160.75 52.2568 161.595 52.5251 162.377C52.7933 163.158 53.3596 163.739 54.2239 164.119C54.9125 164.421 55.5994 164.548 56.2847 164.5C56.9701 164.451 57.6199 164.265 58.2342 163.94C58.8274 163.624 59.3754 163.192 59.8782 162.644C60.3664 162.089 60.7617 161.468 61.0641 160.779C61.463 159.871 61.5438 159.05 61.3067 158.317C61.0549 157.577 60.4748 157.008 59.5665 156.609Z" fill="black"/>
<path d="M42.114 151.609C42.2193 151.529 42.3283 151.432 42.4412 151.317C42.5541 151.203 42.6657 151.077 42.7762 150.94C43.3284 150.255 43.586 149.527 43.5489 148.758C43.5017 148 43.0421 147.27 42.1701 146.567C41.7341 146.216 41.3078 145.955 40.8911 145.783C40.462 145.602 40.0526 145.498 39.6629 145.471C39.2631 145.457 38.8857 145.492 38.5305 145.576C38.1529 145.662 37.7964 145.785 37.4609 145.947L36.8073 144.31C37.2729 144.089 37.767 143.922 38.2897 143.809C38.8023 143.709 39.3346 143.686 39.8867 143.74C40.4387 143.795 41.0066 143.944 41.5904 144.189C42.1743 144.433 42.7714 144.802 43.3817 145.294C43.9423 145.746 44.389 146.25 44.7218 146.805C45.0521 147.339 45.26 147.897 45.3453 148.479C45.4205 149.074 45.3658 149.678 45.1812 150.289C44.9965 150.901 44.6682 151.499 44.1963 152.085C43.5637 152.87 42.8316 153.523 42.0001 154.044C41.1585 154.579 40.2751 154.935 39.3499 155.114C38.4247 155.293 37.4777 155.27 36.509 155.044C35.5303 154.83 34.5987 154.367 33.7143 153.654C33.0914 153.152 32.6299 152.616 32.3296 152.045C32.0193 151.486 31.8503 150.918 31.8224 150.341C31.7845 149.776 31.8615 149.222 32.0534 148.678C32.2353 148.146 32.507 147.656 32.8685 147.208C33.1396 146.871 33.438 146.578 33.7638 146.326L34.6772 145.614L42.114 151.609ZM35.0157 152.422C35.4517 152.773 35.918 153.036 36.4146 153.21C36.8887 153.387 37.3769 153.483 37.8791 153.497C38.3813 153.511 38.875 153.447 39.3603 153.304C39.8356 153.173 40.2861 152.971 40.7119 152.698L34.77 147.908C34.5719 148.077 34.4026 148.249 34.2621 148.424C33.7198 149.096 33.5386 149.793 33.7184 150.513C33.8981 151.233 34.3305 151.87 35.0157 152.422Z" fill="black"/>
<path d="M13.7682 119.202L11.2107 112.472L12.826 111.858L15.3835 118.588L13.7682 119.202Z" fill="black"/>
</svg>
