<?xml version="1.0" encoding="utf-8"?>
<!-- Generator: Adobe Illustrator 26.0.0, SVG Export Plug-In . SVG Version: 6.00 Build 0)  -->
<svg version="1.1"
	 id="svg3070" xmlns:cc="http://creativecommons.org/ns#" xmlns:dc="http://purl.org/dc/elements/1.1/" xmlns:inkscape="http://www.inkscape.org/namespaces/inkscape" xmlns:rdf="http://www.w3.org/1999/02/22-rdf-syntax-ns#" xmlns:sodipodi="http://sodipodi.sourceforge.net/DTD/sodipodi-0.dtd" xmlns:svg="http://www.w3.org/2000/svg"
	 xmlns="http://www.w3.org/2000/svg" xmlns:xlink="http://www.w3.org/1999/xlink" x="0px" y="0px" viewBox="0 0 79.5 80"
	 style="enable-background:new 0 0 79.5 80;" xml:space="preserve">
<sodipodi:namedview  bordercolor="#666666" borderopacity="1.0" fit-margin-bottom="0" fit-margin-left="0" fit-margin-right="0" fit-margin-top="0" id="base" inkscape:current-layer="layer1" inkscape:cx="142.93233" inkscape:cy="33.703355" inkscape:document-units="px" inkscape:pageopacity="0.0" inkscape:pageshadow="2" inkscape:window-height="750" inkscape:window-maximized="1" inkscape:window-width="1280" inkscape:window-x="-8" inkscape:window-y="-8" inkscape:zoom="2.8" pagecolor="#ffffff" showgrid="false">
	</sodipodi:namedview>
<g>
	<path d="M42.7,36.3v-0.2c0,0.1-0.1,0.1-0.1,0.2H42.7z"/>
	<path d="M72,1.9H7.5c-3.1,0-5.6,2.4-5.6,5.5v65.3c0,3.1,2.5,5.5,5.6,5.5H72c3.1,0,5.6-2.4,5.6-5.5V7.4C77.7,4.3,75.1,1.9,72,1.9z
		 M24.8,65.7H13.4V31.3h11.4V65.7z M19.1,26.6c-3.9,0-6.4-2.6-6.4-5.9c0-3.4,2.6-5.9,6.5-5.9c4,0,6.3,2.5,6.4,5.9
		C25.6,24,23,26.6,19.1,26.6z M66.1,65.7H54.7V47.3c0-4.6-1.6-7.7-5.8-7.7c-3.2,0-5.1,2.1-5.9,4.2c-0.3,0.7-0.4,1.7-0.4,2.8v19.3
		H31.2c0,0,0.1-31.2,0-34.4h11.5v4.8c1.5-2.3,4.2-5.7,10.3-5.7c7.5,0,13.1,4.9,13.1,15.5V65.7z"/>
</g>
</svg>
