<?xml version="1.0" encoding="utf-8"?>
<!-- Generator: Adobe Illustrator 26.0.0, SVG Export Plug-In . SVG Version: 6.00 Build 0)  -->
<svg version="1.1" id="Calque_1" xmlns="http://www.w3.org/2000/svg" xmlns:xlink="http://www.w3.org/1999/xlink" x="0px" y="0px"
	 viewBox="0 0 436.8 436.8" style="enable-background:new 0 0 436.8 436.8;" xml:space="preserve">
<g>
	<path d="M33.6,72.8c-4.5,0-8.7,0.9-12.6,2.4l187.4,166.9c6.5,5.8,13.8,5.8,20.3,0L415.8,75.3c-3.9-1.6-8.1-2.4-12.6-2.4H33.6
		L33.6,72.8z M0.3,101.7c-0.2,1.5-0.3,3.1-0.3,4.7v224c0,4.6,1,9,2.6,12.9l129.3-124.2L0.3,101.7z M436.4,101.7L305.2,218.9
		l129.1,124.2c1.6-3.9,2.4-8.3,2.4-12.8v-224C436.8,104.8,436.7,103.2,436.4,101.7L436.4,101.7z M280,241.5l-28.9,25.9
		c-18.4,16.4-46.7,16.4-65.1,0l-28.9-25.7L29.7,363.8c1.2,0.1,2.6,0.2,3.9,0.2h369.6c1.2,0,2.5-0.1,3.7-0.2L280,241.5L280,241.5z"/>
</g>
</svg>
